M48
INCH,TZ
T1C0.0150
T2C0.0315
T3C0.0354
T4C0.0394
T5C0.0433
T6C0.0461
T7C0.0591
T8C0.0866
%
G90
G05
T1
X55100Y-30200
X55100Y-30700
X55100Y-31200
X65650Y-55400
X66150Y-55400
X66450Y-55000
X66950Y-53900
T2
X54400Y-32800
X54400Y-34200
X54450Y-48800
X54450Y-51800
X54550Y-38200
X54550Y-41200
X55000Y-21200
X55000Y-24200
X55550Y-38200
X55550Y-41200
X55850Y-48800
X55850Y-51800
X56050Y-54031
X56050Y-56000
X56500Y-21200
X56500Y-24200
X56550Y-38200
X56550Y-41200
X57250Y-48800
X57250Y-51800
X57400Y-32800
X57400Y-34200
X57550Y-38200
X57550Y-41200
X57650Y-54031
X57650Y-56000
X58000Y-21200
X58000Y-24200
X58300Y-25931
X58300Y-27900
X58300Y-29550
X58300Y-31519
X58550Y-38200
X58550Y-41200
X59350Y-48700
X59350Y-51700
X59450Y-54031
X59450Y-56000
X59500Y-21200
X59500Y-24200
X59550Y-38200
X59550Y-41200
X60000Y-42250
X60000Y-44219
X60192Y-58000
X60350Y-48700
X60350Y-51700
X60550Y-35600
X60550Y-37000
X60550Y-38200
X60550Y-41200
X60979Y-58000
X61000Y-21200
X61000Y-24200
X61250Y-54031
X61250Y-56000
X61350Y-48700
X61350Y-51700
X61550Y-38200
X61550Y-41200
X62079Y-42850
X62500Y-21200
X62500Y-24200
X62519Y-35600
X62519Y-37000
X62550Y-38200
X62550Y-41200
X63450Y-48800
X63450Y-51800
X63550Y-38200
X63550Y-41200
X64000Y-21200
X64000Y-24200
X64000Y-42850
X64350Y-35913
X64350Y-36700
X64550Y-38200
X64550Y-41200
X64850Y-48800
X64850Y-51800
X65500Y-21200
X65500Y-24200
X65550Y-38200
X65550Y-41200
X66100Y-42250
X66100Y-44219
X66250Y-48800
X66250Y-51800
X66550Y-38200
X66550Y-41200
X67000Y-21200
X67000Y-24200
X67550Y-38200
X67550Y-41200
X67650Y-48800
X67650Y-51800
T3
X57850Y-46700
X58850Y-46700
X60650Y-46700
X61650Y-46700
X63450Y-46700
X64450Y-46700
X66250Y-46700
X67250Y-46700
T4
X54550Y-35800
X54550Y-36800
X54600Y-42450
X54600Y-43450
X55550Y-35800
X55550Y-36800
X55600Y-42450
X55600Y-43450
X56223Y-58474
X56550Y-35800
X56550Y-36800
X56600Y-42450
X56600Y-43450
X57223Y-58474
X57550Y-35800
X57550Y-36800
X57650Y-19498
X58223Y-58474
X58650Y-19498
X59650Y-19498
X60650Y-19498
X61650Y-19498
X62650Y-19498
X63650Y-19498
X64650Y-19498
T5
X54450Y-53000
X54450Y-56000
X54478Y-44800
X54478Y-47359
X56250Y-44800
X56250Y-47359
X63150Y-53000
X63150Y-56000
T6
X63850Y-26300
T7
X63850Y-34174
T8
X54286Y-19498
X54286Y-58474
X67672Y-19498
X67672Y-58474
T0
M30
