G04 #@! TF.GenerationSoftware,KiCad,Pcbnew,6.0.7-f9a2dced07~116~ubuntu20.04.1*
G04 #@! TF.CreationDate,2022-09-25T20:21:23+02:00*
G04 #@! TF.ProjectId,Wordclock,576f7264-636c-46f6-936b-2e6b69636164,v01.3*
G04 #@! TF.SameCoordinates,Original*
G04 #@! TF.FileFunction,Soldermask,Bot*
G04 #@! TF.FilePolarity,Negative*
%FSLAX46Y46*%
G04 Gerber Fmt 4.6, Leading zero omitted, Abs format (unit mm)*
G04 Created by KiCad (PCBNEW 6.0.7-f9a2dced07~116~ubuntu20.04.1) date 2022-09-25 20:21:23*
%MOMM*%
%LPD*%
G01*
G04 APERTURE LIST*
%ADD10R,2.170000X2.170000*%
%ADD11C,2.500000*%
%ADD12C,1.600000*%
%ADD13R,1.600000X1.600000*%
%ADD14R,1.700000X1.700000*%
%ADD15O,1.700000X1.700000*%
%ADD16R,1.800000X1.800000*%
%ADD17C,1.800000*%
%ADD18O,1.600000X1.600000*%
%ADD19C,1.500000*%
%ADD20C,3.800000*%
%ADD21R,2.200000X2.200000*%
%ADD22O,2.200000X2.200000*%
%ADD23C,2.000000*%
G04 APERTURE END LIST*
D10*
X162179000Y-66802000D03*
D11*
X162179000Y-86802000D03*
D12*
X142367000Y-142240000D03*
X142367000Y-137240000D03*
X155575000Y-142240000D03*
X155575000Y-137240000D03*
X146431000Y-137240000D03*
X146431000Y-142240000D03*
D13*
X163449000Y-93218000D03*
D12*
X163449000Y-91218000D03*
D13*
X154887000Y-147320000D03*
D12*
X152887000Y-147320000D03*
X151003000Y-137240000D03*
X151003000Y-142240000D03*
X152400000Y-112315000D03*
X152400000Y-107315000D03*
X167894000Y-112315000D03*
X167894000Y-107315000D03*
X148082000Y-70866000D03*
X148082000Y-65866000D03*
X148082000Y-75057000D03*
X148082000Y-80057000D03*
D14*
X146431000Y-49524000D03*
D15*
X148971000Y-49524000D03*
X151511000Y-49524000D03*
X154051000Y-49524000D03*
X156591000Y-49524000D03*
X159131000Y-49524000D03*
X161671000Y-49524000D03*
X164211000Y-49524000D03*
D16*
X168275000Y-118618000D03*
D17*
X170815000Y-118618000D03*
D16*
X146939000Y-118618000D03*
D17*
X149479000Y-118618000D03*
D12*
X138303000Y-131572000D03*
D18*
X138303000Y-123952000D03*
D12*
X145415000Y-131572000D03*
D18*
X145415000Y-123952000D03*
D12*
X161163000Y-123952000D03*
D18*
X161163000Y-131572000D03*
D12*
X168275000Y-131572000D03*
D18*
X168275000Y-123952000D03*
D12*
X171831000Y-131572000D03*
D18*
X171831000Y-123952000D03*
D12*
X141859000Y-131572000D03*
D18*
X141859000Y-123952000D03*
D12*
X164719000Y-123952000D03*
D18*
X164719000Y-131572000D03*
D12*
X138176000Y-86868000D03*
D18*
X145796000Y-86868000D03*
D12*
X138176000Y-83312000D03*
D18*
X145796000Y-83312000D03*
D16*
X161163000Y-118618000D03*
D17*
X163703000Y-118618000D03*
D13*
X150749000Y-131318000D03*
D18*
X153289000Y-131318000D03*
X155829000Y-131318000D03*
X155829000Y-123698000D03*
X153289000Y-123698000D03*
X150749000Y-123698000D03*
D16*
X154051000Y-118618000D03*
D17*
X156591000Y-118618000D03*
D19*
X157680000Y-108839000D03*
X162560000Y-108839000D03*
D20*
X137887000Y-148524000D03*
X171887000Y-148524000D03*
X171887000Y-49524000D03*
D21*
X138303000Y-134620000D03*
D22*
X138303000Y-142240000D03*
D21*
X160401000Y-134620000D03*
D22*
X160401000Y-142240000D03*
D14*
X142807000Y-148524000D03*
D15*
X145347000Y-148524000D03*
X147887000Y-148524000D03*
D13*
X138557000Y-104648000D03*
D18*
X141097000Y-104648000D03*
X143637000Y-104648000D03*
X146177000Y-104648000D03*
X148717000Y-104648000D03*
X151257000Y-104648000D03*
X153797000Y-104648000D03*
X156337000Y-104648000D03*
X158877000Y-104648000D03*
X161417000Y-104648000D03*
X163957000Y-104648000D03*
X166497000Y-104648000D03*
X169037000Y-104648000D03*
X171577000Y-104648000D03*
X171577000Y-97028000D03*
X169037000Y-97028000D03*
X166497000Y-97028000D03*
X163957000Y-97028000D03*
X161417000Y-97028000D03*
X158877000Y-97028000D03*
X156337000Y-97028000D03*
X153797000Y-97028000D03*
X151257000Y-97028000D03*
X148717000Y-97028000D03*
X146177000Y-97028000D03*
X143637000Y-97028000D03*
X141097000Y-97028000D03*
X138557000Y-97028000D03*
D12*
X153797000Y-90424000D03*
X158797000Y-90424000D03*
X139700000Y-53848000D03*
D18*
X139700000Y-61468000D03*
D12*
X154940000Y-53848000D03*
D18*
X154940000Y-61468000D03*
D12*
X151130000Y-61468000D03*
D18*
X151130000Y-53848000D03*
D12*
X143510000Y-53848000D03*
D18*
X143510000Y-61468000D03*
D12*
X166370000Y-61468000D03*
D18*
X166370000Y-53848000D03*
D12*
X162560000Y-61468000D03*
D18*
X162560000Y-53848000D03*
D12*
X170180000Y-61468000D03*
D18*
X170180000Y-53848000D03*
D20*
X137887000Y-49524000D03*
D12*
X147320000Y-53848000D03*
D18*
X147320000Y-61468000D03*
D23*
X138375000Y-120292000D03*
X138375000Y-113792000D03*
X142875000Y-113792000D03*
X142875000Y-120292000D03*
D14*
X143764000Y-107823000D03*
D15*
X143764000Y-110363000D03*
X141224000Y-107823000D03*
X141224000Y-110363000D03*
X138684000Y-107823000D03*
X138684000Y-110363000D03*
D12*
X153797000Y-93980000D03*
X158797000Y-93980000D03*
D14*
X146177000Y-90932000D03*
D15*
X146177000Y-93472000D03*
X143637000Y-90932000D03*
X143637000Y-93472000D03*
X141097000Y-90932000D03*
X141097000Y-93472000D03*
X138557000Y-90932000D03*
X138557000Y-93472000D03*
D12*
X158750000Y-53848000D03*
D18*
X158750000Y-61468000D03*
M02*
