G04 #@! TF.GenerationSoftware,KiCad,Pcbnew,6.0.7-f9a2dced07~116~ubuntu20.04.1*
G04 #@! TF.CreationDate,2022-09-25T20:21:23+02:00*
G04 #@! TF.ProjectId,Wordclock,576f7264-636c-46f6-936b-2e6b69636164,v01.3*
G04 #@! TF.SameCoordinates,Original*
G04 #@! TF.FileFunction,Soldermask,Top*
G04 #@! TF.FilePolarity,Negative*
%FSLAX46Y46*%
G04 Gerber Fmt 4.6, Leading zero omitted, Abs format (unit mm)*
G04 Created by KiCad (PCBNEW 6.0.7-f9a2dced07~116~ubuntu20.04.1) date 2022-09-25 20:21:23*
%MOMM*%
%LPD*%
G01*
G04 APERTURE LIST*
G04 Aperture macros list*
%AMRoundRect*
0 Rectangle with rounded corners*
0 $1 Rounding radius*
0 $2 $3 $4 $5 $6 $7 $8 $9 X,Y pos of 4 corners*
0 Add a 4 corners polygon primitive as box body*
4,1,4,$2,$3,$4,$5,$6,$7,$8,$9,$2,$3,0*
0 Add four circle primitives for the rounded corners*
1,1,$1+$1,$2,$3*
1,1,$1+$1,$4,$5*
1,1,$1+$1,$6,$7*
1,1,$1+$1,$8,$9*
0 Add four rect primitives between the rounded corners*
20,1,$1+$1,$2,$3,$4,$5,0*
20,1,$1+$1,$4,$5,$6,$7,0*
20,1,$1+$1,$6,$7,$8,$9,0*
20,1,$1+$1,$8,$9,$2,$3,0*%
%AMFreePoly0*
4,1,22,0.500000,-0.750000,0.000000,-0.750000,0.000000,-0.745033,-0.079941,-0.743568,-0.215256,-0.701293,-0.333266,-0.622738,-0.424486,-0.514219,-0.481581,-0.384460,-0.499164,-0.250000,-0.500000,-0.250000,-0.500000,0.250000,-0.499164,0.250000,-0.499963,0.256109,-0.478152,0.396186,-0.417904,0.524511,-0.324060,0.630769,-0.204165,0.706417,-0.067858,0.745374,0.000000,0.744959,0.000000,0.750000,
0.500000,0.750000,0.500000,-0.750000,0.500000,-0.750000,$1*%
%AMFreePoly1*
4,1,20,0.000000,0.744959,0.073905,0.744508,0.209726,0.703889,0.328688,0.626782,0.421226,0.519385,0.479903,0.390333,0.500000,0.250000,0.500000,-0.250000,0.499851,-0.262216,0.476331,-0.402017,0.414519,-0.529596,0.319384,-0.634700,0.198574,-0.708877,0.061801,-0.746166,0.000000,-0.745033,0.000000,-0.750000,-0.500000,-0.750000,-0.500000,0.750000,0.000000,0.750000,0.000000,0.744959,
0.000000,0.744959,$1*%
G04 Aperture macros list end*
%ADD10R,2.170000X2.170000*%
%ADD11C,2.500000*%
%ADD12C,1.600000*%
%ADD13R,1.600000X1.600000*%
%ADD14R,1.700000X1.700000*%
%ADD15O,1.700000X1.700000*%
%ADD16FreePoly0,90.000000*%
%ADD17FreePoly1,90.000000*%
%ADD18R,1.800000X1.800000*%
%ADD19C,1.800000*%
%ADD20O,1.600000X1.600000*%
%ADD21RoundRect,0.237500X0.237500X-0.287500X0.237500X0.287500X-0.237500X0.287500X-0.237500X-0.287500X0*%
%ADD22C,1.500000*%
%ADD23C,3.800000*%
%ADD24R,2.200000X2.200000*%
%ADD25O,2.200000X2.200000*%
%ADD26RoundRect,0.150000X-0.825000X-0.150000X0.825000X-0.150000X0.825000X0.150000X-0.825000X0.150000X0*%
%ADD27R,0.450000X1.750000*%
%ADD28R,0.450000X1.380000*%
%ADD29R,2.375000X1.900000*%
%ADD30R,1.175000X1.900000*%
%ADD31R,1.475000X2.100000*%
%ADD32C,2.000000*%
G04 APERTURE END LIST*
D10*
X162179000Y-66802000D03*
D11*
X162179000Y-86802000D03*
D12*
X142367000Y-142240000D03*
X142367000Y-137240000D03*
X155575000Y-142240000D03*
X155575000Y-137240000D03*
X146431000Y-137240000D03*
X146431000Y-142240000D03*
D13*
X163449000Y-93218000D03*
D12*
X163449000Y-91218000D03*
D13*
X154887000Y-147320000D03*
D12*
X152887000Y-147320000D03*
X151003000Y-137240000D03*
X151003000Y-142240000D03*
X152400000Y-112315000D03*
X152400000Y-107315000D03*
X167894000Y-112315000D03*
X167894000Y-107315000D03*
X148082000Y-70866000D03*
X148082000Y-65866000D03*
X148082000Y-75057000D03*
X148082000Y-80057000D03*
D14*
X146431000Y-49524000D03*
D15*
X148971000Y-49524000D03*
X151511000Y-49524000D03*
X154051000Y-49524000D03*
X156591000Y-49524000D03*
X159131000Y-49524000D03*
X161671000Y-49524000D03*
X164211000Y-49524000D03*
D16*
X144399000Y-67056000D03*
D17*
X144399000Y-65756000D03*
D16*
X141351000Y-67056000D03*
D17*
X141351000Y-65756000D03*
D16*
X138303000Y-67056000D03*
D17*
X138303000Y-65756000D03*
D18*
X168275000Y-118618000D03*
D19*
X170815000Y-118618000D03*
D18*
X146939000Y-118618000D03*
D19*
X149479000Y-118618000D03*
D12*
X138303000Y-131572000D03*
D20*
X138303000Y-123952000D03*
D12*
X145415000Y-131572000D03*
D20*
X145415000Y-123952000D03*
D12*
X161163000Y-123952000D03*
D20*
X161163000Y-131572000D03*
D12*
X168275000Y-131572000D03*
D20*
X168275000Y-123952000D03*
D12*
X171831000Y-131572000D03*
D20*
X171831000Y-123952000D03*
D12*
X141859000Y-131572000D03*
D20*
X141859000Y-123952000D03*
D12*
X164719000Y-123952000D03*
D20*
X164719000Y-131572000D03*
D12*
X138176000Y-86868000D03*
D20*
X145796000Y-86868000D03*
D12*
X138176000Y-83312000D03*
D20*
X145796000Y-83312000D03*
D21*
X158115000Y-148082000D03*
X158115000Y-146332000D03*
D18*
X161163000Y-118618000D03*
D19*
X163703000Y-118618000D03*
D13*
X150749000Y-131318000D03*
D20*
X153289000Y-131318000D03*
X155829000Y-131318000D03*
X155829000Y-123698000D03*
X153289000Y-123698000D03*
X150749000Y-123698000D03*
D18*
X154051000Y-118618000D03*
D19*
X156591000Y-118618000D03*
D22*
X157680000Y-108839000D03*
X162560000Y-108839000D03*
D23*
X137887000Y-148524000D03*
X171887000Y-148524000D03*
X171887000Y-49524000D03*
D24*
X138303000Y-134620000D03*
D25*
X138303000Y-142240000D03*
D24*
X160401000Y-134620000D03*
D25*
X160401000Y-142240000D03*
D14*
X142807000Y-148524000D03*
D15*
X145347000Y-148524000D03*
X147887000Y-148524000D03*
D26*
X138303000Y-76708000D03*
X138303000Y-77978000D03*
X138303000Y-79248000D03*
X138303000Y-80518000D03*
X143253000Y-80518000D03*
X143253000Y-79248000D03*
X143253000Y-77978000D03*
X143253000Y-76708000D03*
D27*
X171992000Y-135294000D03*
X171342000Y-135294000D03*
X170692000Y-135294000D03*
X170042000Y-135294000D03*
X169392000Y-135294000D03*
X168742000Y-135294000D03*
X168092000Y-135294000D03*
X167442000Y-135294000D03*
X166792000Y-135294000D03*
X166142000Y-135294000D03*
X165492000Y-135294000D03*
X164842000Y-135294000D03*
X164192000Y-135294000D03*
X163542000Y-135294000D03*
X163542000Y-142494000D03*
X164192000Y-142494000D03*
X164842000Y-142494000D03*
X165492000Y-142494000D03*
X166142000Y-142494000D03*
X166792000Y-142494000D03*
X167442000Y-142494000D03*
X168092000Y-142494000D03*
X168742000Y-142494000D03*
X169392000Y-142494000D03*
X170042000Y-142494000D03*
X170692000Y-142494000D03*
X171342000Y-142494000D03*
X171992000Y-142494000D03*
D13*
X138557000Y-104648000D03*
D20*
X141097000Y-104648000D03*
X143637000Y-104648000D03*
X146177000Y-104648000D03*
X148717000Y-104648000D03*
X151257000Y-104648000D03*
X153797000Y-104648000D03*
X156337000Y-104648000D03*
X158877000Y-104648000D03*
X161417000Y-104648000D03*
X163957000Y-104648000D03*
X166497000Y-104648000D03*
X169037000Y-104648000D03*
X171577000Y-104648000D03*
X171577000Y-97028000D03*
X169037000Y-97028000D03*
X166497000Y-97028000D03*
X163957000Y-97028000D03*
X161417000Y-97028000D03*
X158877000Y-97028000D03*
X156337000Y-97028000D03*
X153797000Y-97028000D03*
X151257000Y-97028000D03*
X148717000Y-97028000D03*
X146177000Y-97028000D03*
X143637000Y-97028000D03*
X141097000Y-97028000D03*
X138557000Y-97028000D03*
D12*
X153797000Y-90424000D03*
X158797000Y-90424000D03*
X139700000Y-53848000D03*
D20*
X139700000Y-61468000D03*
D12*
X154940000Y-53848000D03*
D20*
X154940000Y-61468000D03*
D12*
X151130000Y-61468000D03*
D20*
X151130000Y-53848000D03*
D12*
X143510000Y-53848000D03*
D20*
X143510000Y-61468000D03*
D12*
X166370000Y-61468000D03*
D20*
X166370000Y-53848000D03*
D12*
X162560000Y-61468000D03*
D20*
X162560000Y-53848000D03*
D12*
X170180000Y-61468000D03*
D20*
X170180000Y-53848000D03*
D23*
X137887000Y-49524000D03*
D12*
X147320000Y-53848000D03*
D20*
X147320000Y-61468000D03*
D28*
X162833500Y-145817000D03*
X163483500Y-145817000D03*
X164133500Y-145817000D03*
X164783500Y-145817000D03*
X165433500Y-145817000D03*
D29*
X167046000Y-148477000D03*
D30*
X163296000Y-148477000D03*
D31*
X166596000Y-146177000D03*
D29*
X161221000Y-148477000D03*
D30*
X164971000Y-148477000D03*
D31*
X161671000Y-146177000D03*
D32*
X138375000Y-120292000D03*
X138375000Y-113792000D03*
X142875000Y-113792000D03*
X142875000Y-120292000D03*
D26*
X138303000Y-70866000D03*
X138303000Y-72136000D03*
X138303000Y-73406000D03*
X138303000Y-74676000D03*
X143253000Y-74676000D03*
X143253000Y-73406000D03*
X143253000Y-72136000D03*
X143253000Y-70866000D03*
D14*
X143764000Y-107823000D03*
D15*
X143764000Y-110363000D03*
X141224000Y-107823000D03*
X141224000Y-110363000D03*
X138684000Y-107823000D03*
X138684000Y-110363000D03*
D12*
X153797000Y-93980000D03*
X158797000Y-93980000D03*
D14*
X146177000Y-90932000D03*
D15*
X146177000Y-93472000D03*
X143637000Y-90932000D03*
X143637000Y-93472000D03*
X141097000Y-90932000D03*
X141097000Y-93472000D03*
X138557000Y-90932000D03*
X138557000Y-93472000D03*
D12*
X158750000Y-53848000D03*
D20*
X158750000Y-61468000D03*
M02*
