G04 #@! TF.GenerationSoftware,KiCad,Pcbnew,6.0.7-f9a2dced07~116~ubuntu20.04.1*
G04 #@! TF.CreationDate,2022-09-25T20:21:23+02:00*
G04 #@! TF.ProjectId,Wordclock,576f7264-636c-46f6-936b-2e6b69636164,v01.3*
G04 #@! TF.SameCoordinates,Original*
G04 #@! TF.FileFunction,Legend,Top*
G04 #@! TF.FilePolarity,Positive*
%FSLAX46Y46*%
G04 Gerber Fmt 4.6, Leading zero omitted, Abs format (unit mm)*
G04 Created by KiCad (PCBNEW 6.0.7-f9a2dced07~116~ubuntu20.04.1) date 2022-09-25 20:21:23*
%MOMM*%
%LPD*%
G01*
G04 APERTURE LIST*
%ADD10C,0.150000*%
%ADD11C,0.120000*%
%ADD12C,0.100000*%
G04 APERTURE END LIST*
D10*
X160401000Y-51308000D02*
X160401000Y-52324000D01*
X150241000Y-51308000D02*
X150241000Y-52324000D01*
X155321000Y-51308000D02*
X155321000Y-52324000D01*
X151995285Y-51268380D02*
X151995285Y-52077904D01*
X152042904Y-52173142D01*
X152090523Y-52220761D01*
X152185761Y-52268380D01*
X152376238Y-52268380D01*
X152471476Y-52220761D01*
X152519095Y-52173142D01*
X152566714Y-52077904D01*
X152566714Y-51268380D01*
X153042904Y-52268380D02*
X153042904Y-51268380D01*
X153423857Y-51268380D01*
X153519095Y-51316000D01*
X153566714Y-51363619D01*
X153614333Y-51458857D01*
X153614333Y-51601714D01*
X153566714Y-51696952D01*
X153519095Y-51744571D01*
X153423857Y-51792190D01*
X153042904Y-51792190D01*
X145867380Y-146867428D02*
X144867380Y-146867428D01*
X144867380Y-146629333D01*
X144915000Y-146486476D01*
X145010238Y-146391238D01*
X145105476Y-146343619D01*
X145295952Y-146296000D01*
X145438809Y-146296000D01*
X145629285Y-146343619D01*
X145724523Y-146391238D01*
X145819761Y-146486476D01*
X145867380Y-146629333D01*
X145867380Y-146867428D01*
X145581666Y-145915047D02*
X145581666Y-145438857D01*
X145867380Y-146010285D02*
X144867380Y-145676952D01*
X145867380Y-145343619D01*
X144867380Y-145153142D02*
X144867380Y-144581714D01*
X145867380Y-144867428D02*
X144867380Y-144867428D01*
X147558809Y-134310380D02*
X147558809Y-133310380D01*
X147939761Y-133310380D01*
X148035000Y-133358000D01*
X148082619Y-133405619D01*
X148130238Y-133500857D01*
X148130238Y-133643714D01*
X148082619Y-133738952D01*
X148035000Y-133786571D01*
X147939761Y-133834190D01*
X147558809Y-133834190D01*
X148463571Y-133310380D02*
X148701666Y-134310380D01*
X148892142Y-133596095D01*
X149082619Y-134310380D01*
X149320714Y-133310380D01*
X150273095Y-134310380D02*
X149939761Y-133834190D01*
X149701666Y-134310380D02*
X149701666Y-133310380D01*
X150082619Y-133310380D01*
X150177857Y-133358000D01*
X150225476Y-133405619D01*
X150273095Y-133500857D01*
X150273095Y-133643714D01*
X150225476Y-133738952D01*
X150177857Y-133786571D01*
X150082619Y-133834190D01*
X149701666Y-133834190D01*
X150939761Y-134643714D02*
X150939761Y-133215142D01*
X152225476Y-134310380D02*
X151892142Y-133834190D01*
X151654047Y-134310380D02*
X151654047Y-133310380D01*
X152035000Y-133310380D01*
X152130238Y-133358000D01*
X152177857Y-133405619D01*
X152225476Y-133500857D01*
X152225476Y-133643714D01*
X152177857Y-133738952D01*
X152130238Y-133786571D01*
X152035000Y-133834190D01*
X151654047Y-133834190D01*
X152558809Y-133310380D02*
X153225476Y-134310380D01*
X153225476Y-133310380D02*
X152558809Y-134310380D01*
X153463571Y-133310380D02*
X154035000Y-133310380D01*
X153749285Y-134310380D02*
X153749285Y-133310380D01*
X154273095Y-133310380D02*
X154939761Y-134310380D01*
X154939761Y-133310380D02*
X154273095Y-134310380D01*
X155558809Y-134643714D02*
X155558809Y-133215142D01*
X156749285Y-134310380D02*
X156273095Y-134310380D01*
X156273095Y-133310380D01*
X157082619Y-133786571D02*
X157415952Y-133786571D01*
X157558809Y-134310380D02*
X157082619Y-134310380D01*
X157082619Y-133310380D01*
X157558809Y-133310380D01*
X157987380Y-134310380D02*
X157987380Y-133310380D01*
X158225476Y-133310380D01*
X158368333Y-133358000D01*
X158463571Y-133453238D01*
X158511190Y-133548476D01*
X158558809Y-133738952D01*
X158558809Y-133881809D01*
X158511190Y-134072285D01*
X158463571Y-134167523D01*
X158368333Y-134262761D01*
X158225476Y-134310380D01*
X157987380Y-134310380D01*
X161060047Y-52268380D02*
X161060047Y-51268380D01*
X161298142Y-51268380D01*
X161441000Y-51316000D01*
X161536238Y-51411238D01*
X161583857Y-51506476D01*
X161631476Y-51696952D01*
X161631476Y-51839809D01*
X161583857Y-52030285D01*
X161536238Y-52125523D01*
X161441000Y-52220761D01*
X161298142Y-52268380D01*
X161060047Y-52268380D01*
X162250523Y-51268380D02*
X162441000Y-51268380D01*
X162536238Y-51316000D01*
X162631476Y-51411238D01*
X162679095Y-51601714D01*
X162679095Y-51935047D01*
X162631476Y-52125523D01*
X162536238Y-52220761D01*
X162441000Y-52268380D01*
X162250523Y-52268380D01*
X162155285Y-52220761D01*
X162060047Y-52125523D01*
X162012428Y-51935047D01*
X162012428Y-51601714D01*
X162060047Y-51411238D01*
X162155285Y-51316000D01*
X162250523Y-51268380D01*
X163012428Y-51268380D02*
X163250523Y-52268380D01*
X163441000Y-51554095D01*
X163631476Y-52268380D01*
X163869571Y-51268380D01*
X164250523Y-52268380D02*
X164250523Y-51268380D01*
X164821952Y-52268380D01*
X164821952Y-51268380D01*
X156741952Y-52220761D02*
X156884809Y-52268380D01*
X157122904Y-52268380D01*
X157218142Y-52220761D01*
X157265761Y-52173142D01*
X157313380Y-52077904D01*
X157313380Y-51982666D01*
X157265761Y-51887428D01*
X157218142Y-51839809D01*
X157122904Y-51792190D01*
X156932428Y-51744571D01*
X156837190Y-51696952D01*
X156789571Y-51649333D01*
X156741952Y-51554095D01*
X156741952Y-51458857D01*
X156789571Y-51363619D01*
X156837190Y-51316000D01*
X156932428Y-51268380D01*
X157170523Y-51268380D01*
X157313380Y-51316000D01*
X157741952Y-51744571D02*
X158075285Y-51744571D01*
X158218142Y-52268380D02*
X157741952Y-52268380D01*
X157741952Y-51268380D01*
X158218142Y-51268380D01*
X158503857Y-51268380D02*
X159075285Y-51268380D01*
X158789571Y-52268380D02*
X158789571Y-51268380D01*
X167830761Y-86590142D02*
X167783142Y-86637761D01*
X167640285Y-86685380D01*
X167545047Y-86685380D01*
X167402190Y-86637761D01*
X167306952Y-86542523D01*
X167259333Y-86447285D01*
X167211714Y-86256809D01*
X167211714Y-86113952D01*
X167259333Y-85923476D01*
X167306952Y-85828238D01*
X167402190Y-85733000D01*
X167545047Y-85685380D01*
X167640285Y-85685380D01*
X167783142Y-85733000D01*
X167830761Y-85780619D01*
X168830761Y-86685380D02*
X168497428Y-86209190D01*
X168259333Y-86685380D02*
X168259333Y-85685380D01*
X168640285Y-85685380D01*
X168735523Y-85733000D01*
X168783142Y-85780619D01*
X168830761Y-85875857D01*
X168830761Y-86018714D01*
X168783142Y-86113952D01*
X168735523Y-86161571D01*
X168640285Y-86209190D01*
X168259333Y-86209190D01*
X169211714Y-85780619D02*
X169259333Y-85733000D01*
X169354571Y-85685380D01*
X169592666Y-85685380D01*
X169687904Y-85733000D01*
X169735523Y-85780619D01*
X169783142Y-85875857D01*
X169783142Y-85971095D01*
X169735523Y-86113952D01*
X169164095Y-86685380D01*
X169783142Y-86685380D01*
X170402190Y-85685380D02*
X170497428Y-85685380D01*
X170592666Y-85733000D01*
X170640285Y-85780619D01*
X170687904Y-85875857D01*
X170735523Y-86066333D01*
X170735523Y-86304428D01*
X170687904Y-86494904D01*
X170640285Y-86590142D01*
X170592666Y-86637761D01*
X170497428Y-86685380D01*
X170402190Y-86685380D01*
X170306952Y-86637761D01*
X170259333Y-86590142D01*
X170211714Y-86494904D01*
X170164095Y-86304428D01*
X170164095Y-86066333D01*
X170211714Y-85875857D01*
X170259333Y-85780619D01*
X170306952Y-85733000D01*
X170402190Y-85685380D01*
X171068857Y-85685380D02*
X171687904Y-85685380D01*
X171354571Y-86066333D01*
X171497428Y-86066333D01*
X171592666Y-86113952D01*
X171640285Y-86161571D01*
X171687904Y-86256809D01*
X171687904Y-86494904D01*
X171640285Y-86590142D01*
X171592666Y-86637761D01*
X171497428Y-86685380D01*
X171211714Y-86685380D01*
X171116476Y-86637761D01*
X171068857Y-86590142D01*
X172068857Y-85780619D02*
X172116476Y-85733000D01*
X172211714Y-85685380D01*
X172449809Y-85685380D01*
X172545047Y-85733000D01*
X172592666Y-85780619D01*
X172640285Y-85875857D01*
X172640285Y-85971095D01*
X172592666Y-86113952D01*
X172021238Y-86685380D01*
X172640285Y-86685380D01*
X142692428Y-146827714D02*
X142692428Y-146065809D01*
X143073380Y-146446761D02*
X142311476Y-146446761D01*
X142073380Y-145113428D02*
X142073380Y-145589619D01*
X142549571Y-145637238D01*
X142501952Y-145589619D01*
X142454333Y-145494380D01*
X142454333Y-145256285D01*
X142501952Y-145161047D01*
X142549571Y-145113428D01*
X142644809Y-145065809D01*
X142882904Y-145065809D01*
X142978142Y-145113428D01*
X143025761Y-145161047D01*
X143073380Y-145256285D01*
X143073380Y-145494380D01*
X143025761Y-145589619D01*
X142978142Y-145637238D01*
X142073380Y-144780095D02*
X143073380Y-144446761D01*
X142073380Y-144113428D01*
X147455000Y-146303904D02*
X147407380Y-146399142D01*
X147407380Y-146542000D01*
X147455000Y-146684857D01*
X147550238Y-146780095D01*
X147645476Y-146827714D01*
X147835952Y-146875333D01*
X147978809Y-146875333D01*
X148169285Y-146827714D01*
X148264523Y-146780095D01*
X148359761Y-146684857D01*
X148407380Y-146542000D01*
X148407380Y-146446761D01*
X148359761Y-146303904D01*
X148312142Y-146256285D01*
X147978809Y-146256285D01*
X147978809Y-146446761D01*
X148407380Y-145827714D02*
X147407380Y-145827714D01*
X148407380Y-145256285D01*
X147407380Y-145256285D01*
X148407380Y-144780095D02*
X147407380Y-144780095D01*
X147407380Y-144542000D01*
X147455000Y-144399142D01*
X147550238Y-144303904D01*
X147645476Y-144256285D01*
X147835952Y-144208666D01*
X147978809Y-144208666D01*
X148169285Y-144256285D01*
X148264523Y-144303904D01*
X148359761Y-144399142D01*
X148407380Y-144542000D01*
X148407380Y-144780095D01*
X146939095Y-52268380D02*
X146939095Y-51268380D01*
X147320047Y-51268380D01*
X147415285Y-51316000D01*
X147462904Y-51363619D01*
X147510523Y-51458857D01*
X147510523Y-51601714D01*
X147462904Y-51696952D01*
X147415285Y-51744571D01*
X147320047Y-51792190D01*
X146939095Y-51792190D01*
X147939095Y-52268380D02*
X147939095Y-51268380D01*
X148177190Y-51268380D01*
X148320047Y-51316000D01*
X148415285Y-51411238D01*
X148462904Y-51506476D01*
X148510523Y-51696952D01*
X148510523Y-51839809D01*
X148462904Y-52030285D01*
X148415285Y-52125523D01*
X148320047Y-52220761D01*
X148177190Y-52268380D01*
X147939095Y-52268380D01*
X160964714Y-74198171D02*
X161107571Y-74245790D01*
X161155190Y-74293409D01*
X161202809Y-74388647D01*
X161202809Y-74531504D01*
X161155190Y-74626742D01*
X161107571Y-74674361D01*
X161012333Y-74721980D01*
X160631380Y-74721980D01*
X160631380Y-73721980D01*
X160964714Y-73721980D01*
X161059952Y-73769600D01*
X161107571Y-73817219D01*
X161155190Y-73912457D01*
X161155190Y-74007695D01*
X161107571Y-74102933D01*
X161059952Y-74150552D01*
X160964714Y-74198171D01*
X160631380Y-74198171D01*
X161583761Y-74436266D02*
X162059952Y-74436266D01*
X161488523Y-74721980D02*
X161821857Y-73721980D01*
X162155190Y-74721980D01*
X162345666Y-73721980D02*
X162917095Y-73721980D01*
X162631380Y-74721980D02*
X162631380Y-73721980D01*
X163774238Y-74721980D02*
X163202809Y-74721980D01*
X163488523Y-74721980D02*
X163488523Y-73721980D01*
X163393285Y-73864838D01*
X163298047Y-73960076D01*
X163202809Y-74007695D01*
X142724142Y-139866666D02*
X142771761Y-139914285D01*
X142819380Y-140057142D01*
X142819380Y-140152380D01*
X142771761Y-140295238D01*
X142676523Y-140390476D01*
X142581285Y-140438095D01*
X142390809Y-140485714D01*
X142247952Y-140485714D01*
X142057476Y-140438095D01*
X141962238Y-140390476D01*
X141867000Y-140295238D01*
X141819380Y-140152380D01*
X141819380Y-140057142D01*
X141867000Y-139914285D01*
X141914619Y-139866666D01*
X142819380Y-138914285D02*
X142819380Y-139485714D01*
X142819380Y-139200000D02*
X141819380Y-139200000D01*
X141962238Y-139295238D01*
X142057476Y-139390476D01*
X142105095Y-139485714D01*
X155932142Y-139866666D02*
X155979761Y-139914285D01*
X156027380Y-140057142D01*
X156027380Y-140152380D01*
X155979761Y-140295238D01*
X155884523Y-140390476D01*
X155789285Y-140438095D01*
X155598809Y-140485714D01*
X155455952Y-140485714D01*
X155265476Y-140438095D01*
X155170238Y-140390476D01*
X155075000Y-140295238D01*
X155027380Y-140152380D01*
X155027380Y-140057142D01*
X155075000Y-139914285D01*
X155122619Y-139866666D01*
X155122619Y-139485714D02*
X155075000Y-139438095D01*
X155027380Y-139342857D01*
X155027380Y-139104761D01*
X155075000Y-139009523D01*
X155122619Y-138961904D01*
X155217857Y-138914285D01*
X155313095Y-138914285D01*
X155455952Y-138961904D01*
X156027380Y-139533333D01*
X156027380Y-138914285D01*
X146788142Y-139866666D02*
X146835761Y-139914285D01*
X146883380Y-140057142D01*
X146883380Y-140152380D01*
X146835761Y-140295238D01*
X146740523Y-140390476D01*
X146645285Y-140438095D01*
X146454809Y-140485714D01*
X146311952Y-140485714D01*
X146121476Y-140438095D01*
X146026238Y-140390476D01*
X145931000Y-140295238D01*
X145883380Y-140152380D01*
X145883380Y-140057142D01*
X145931000Y-139914285D01*
X145978619Y-139866666D01*
X145883380Y-139533333D02*
X145883380Y-138914285D01*
X146264333Y-139247619D01*
X146264333Y-139104761D01*
X146311952Y-139009523D01*
X146359571Y-138961904D01*
X146454809Y-138914285D01*
X146692904Y-138914285D01*
X146788142Y-138961904D01*
X146835761Y-139009523D01*
X146883380Y-139104761D01*
X146883380Y-139390476D01*
X146835761Y-139485714D01*
X146788142Y-139533333D01*
X166584333Y-94845142D02*
X166536714Y-94892761D01*
X166393857Y-94940380D01*
X166298619Y-94940380D01*
X166155761Y-94892761D01*
X166060523Y-94797523D01*
X166012904Y-94702285D01*
X165965285Y-94511809D01*
X165965285Y-94368952D01*
X166012904Y-94178476D01*
X166060523Y-94083238D01*
X166155761Y-93988000D01*
X166298619Y-93940380D01*
X166393857Y-93940380D01*
X166536714Y-93988000D01*
X166584333Y-94035619D01*
X167489095Y-93940380D02*
X167012904Y-93940380D01*
X166965285Y-94416571D01*
X167012904Y-94368952D01*
X167108142Y-94321333D01*
X167346238Y-94321333D01*
X167441476Y-94368952D01*
X167489095Y-94416571D01*
X167536714Y-94511809D01*
X167536714Y-94749904D01*
X167489095Y-94845142D01*
X167441476Y-94892761D01*
X167346238Y-94940380D01*
X167108142Y-94940380D01*
X167012904Y-94892761D01*
X166965285Y-94845142D01*
X150582333Y-149963142D02*
X150534714Y-150010761D01*
X150391857Y-150058380D01*
X150296619Y-150058380D01*
X150153761Y-150010761D01*
X150058523Y-149915523D01*
X150010904Y-149820285D01*
X149963285Y-149629809D01*
X149963285Y-149486952D01*
X150010904Y-149296476D01*
X150058523Y-149201238D01*
X150153761Y-149106000D01*
X150296619Y-149058380D01*
X150391857Y-149058380D01*
X150534714Y-149106000D01*
X150582333Y-149153619D01*
X151439476Y-149058380D02*
X151249000Y-149058380D01*
X151153761Y-149106000D01*
X151106142Y-149153619D01*
X151010904Y-149296476D01*
X150963285Y-149486952D01*
X150963285Y-149867904D01*
X151010904Y-149963142D01*
X151058523Y-150010761D01*
X151153761Y-150058380D01*
X151344238Y-150058380D01*
X151439476Y-150010761D01*
X151487095Y-149963142D01*
X151534714Y-149867904D01*
X151534714Y-149629809D01*
X151487095Y-149534571D01*
X151439476Y-149486952D01*
X151344238Y-149439333D01*
X151153761Y-149439333D01*
X151058523Y-149486952D01*
X151010904Y-149534571D01*
X150963285Y-149629809D01*
X151360142Y-139866666D02*
X151407761Y-139914285D01*
X151455380Y-140057142D01*
X151455380Y-140152380D01*
X151407761Y-140295238D01*
X151312523Y-140390476D01*
X151217285Y-140438095D01*
X151026809Y-140485714D01*
X150883952Y-140485714D01*
X150693476Y-140438095D01*
X150598238Y-140390476D01*
X150503000Y-140295238D01*
X150455380Y-140152380D01*
X150455380Y-140057142D01*
X150503000Y-139914285D01*
X150550619Y-139866666D01*
X150883952Y-139295238D02*
X150836333Y-139390476D01*
X150788714Y-139438095D01*
X150693476Y-139485714D01*
X150645857Y-139485714D01*
X150550619Y-139438095D01*
X150503000Y-139390476D01*
X150455380Y-139295238D01*
X150455380Y-139104761D01*
X150503000Y-139009523D01*
X150550619Y-138961904D01*
X150645857Y-138914285D01*
X150693476Y-138914285D01*
X150788714Y-138961904D01*
X150836333Y-139009523D01*
X150883952Y-139104761D01*
X150883952Y-139295238D01*
X150931571Y-139390476D01*
X150979190Y-139438095D01*
X151074428Y-139485714D01*
X151264904Y-139485714D01*
X151360142Y-139438095D01*
X151407761Y-139390476D01*
X151455380Y-139295238D01*
X151455380Y-139104761D01*
X151407761Y-139009523D01*
X151360142Y-138961904D01*
X151264904Y-138914285D01*
X151074428Y-138914285D01*
X150979190Y-138961904D01*
X150931571Y-139009523D01*
X150883952Y-139104761D01*
X152757142Y-110195666D02*
X152804761Y-110243285D01*
X152852380Y-110386142D01*
X152852380Y-110481380D01*
X152804761Y-110624238D01*
X152709523Y-110719476D01*
X152614285Y-110767095D01*
X152423809Y-110814714D01*
X152280952Y-110814714D01*
X152090476Y-110767095D01*
X151995238Y-110719476D01*
X151900000Y-110624238D01*
X151852380Y-110481380D01*
X151852380Y-110386142D01*
X151900000Y-110243285D01*
X151947619Y-110195666D01*
X152852380Y-109719476D02*
X152852380Y-109529000D01*
X152804761Y-109433761D01*
X152757142Y-109386142D01*
X152614285Y-109290904D01*
X152423809Y-109243285D01*
X152042857Y-109243285D01*
X151947619Y-109290904D01*
X151900000Y-109338523D01*
X151852380Y-109433761D01*
X151852380Y-109624238D01*
X151900000Y-109719476D01*
X151947619Y-109767095D01*
X152042857Y-109814714D01*
X152280952Y-109814714D01*
X152376190Y-109767095D01*
X152423809Y-109719476D01*
X152471428Y-109624238D01*
X152471428Y-109433761D01*
X152423809Y-109338523D01*
X152376190Y-109290904D01*
X152280952Y-109243285D01*
X168251142Y-110417857D02*
X168298761Y-110465476D01*
X168346380Y-110608333D01*
X168346380Y-110703571D01*
X168298761Y-110846428D01*
X168203523Y-110941666D01*
X168108285Y-110989285D01*
X167917809Y-111036904D01*
X167774952Y-111036904D01*
X167584476Y-110989285D01*
X167489238Y-110941666D01*
X167394000Y-110846428D01*
X167346380Y-110703571D01*
X167346380Y-110608333D01*
X167394000Y-110465476D01*
X167441619Y-110417857D01*
X168346380Y-109465476D02*
X168346380Y-110036904D01*
X168346380Y-109751190D02*
X167346380Y-109751190D01*
X167489238Y-109846428D01*
X167584476Y-109941666D01*
X167632095Y-110036904D01*
X167346380Y-108846428D02*
X167346380Y-108751190D01*
X167394000Y-108655952D01*
X167441619Y-108608333D01*
X167536857Y-108560714D01*
X167727333Y-108513095D01*
X167965428Y-108513095D01*
X168155904Y-108560714D01*
X168251142Y-108608333D01*
X168298761Y-108655952D01*
X168346380Y-108751190D01*
X168346380Y-108846428D01*
X168298761Y-108941666D01*
X168251142Y-108989285D01*
X168155904Y-109036904D01*
X167965428Y-109084523D01*
X167727333Y-109084523D01*
X167536857Y-109036904D01*
X167441619Y-108989285D01*
X167394000Y-108941666D01*
X167346380Y-108846428D01*
X147439142Y-68723142D02*
X147391523Y-68770761D01*
X147248666Y-68818380D01*
X147153428Y-68818380D01*
X147010571Y-68770761D01*
X146915333Y-68675523D01*
X146867714Y-68580285D01*
X146820095Y-68389809D01*
X146820095Y-68246952D01*
X146867714Y-68056476D01*
X146915333Y-67961238D01*
X147010571Y-67866000D01*
X147153428Y-67818380D01*
X147248666Y-67818380D01*
X147391523Y-67866000D01*
X147439142Y-67913619D01*
X148391523Y-68818380D02*
X147820095Y-68818380D01*
X148105809Y-68818380D02*
X148105809Y-67818380D01*
X148010571Y-67961238D01*
X147915333Y-68056476D01*
X147820095Y-68104095D01*
X149343904Y-68818380D02*
X148772476Y-68818380D01*
X149058190Y-68818380D02*
X149058190Y-67818380D01*
X148962952Y-67961238D01*
X148867714Y-68056476D01*
X148772476Y-68104095D01*
X147439142Y-77954142D02*
X147391523Y-78001761D01*
X147248666Y-78049380D01*
X147153428Y-78049380D01*
X147010571Y-78001761D01*
X146915333Y-77906523D01*
X146867714Y-77811285D01*
X146820095Y-77620809D01*
X146820095Y-77477952D01*
X146867714Y-77287476D01*
X146915333Y-77192238D01*
X147010571Y-77097000D01*
X147153428Y-77049380D01*
X147248666Y-77049380D01*
X147391523Y-77097000D01*
X147439142Y-77144619D01*
X148391523Y-78049380D02*
X147820095Y-78049380D01*
X148105809Y-78049380D02*
X148105809Y-77049380D01*
X148010571Y-77192238D01*
X147915333Y-77287476D01*
X147820095Y-77335095D01*
X148772476Y-77144619D02*
X148820095Y-77097000D01*
X148915333Y-77049380D01*
X149153428Y-77049380D01*
X149248666Y-77097000D01*
X149296285Y-77144619D01*
X149343904Y-77239857D01*
X149343904Y-77335095D01*
X149296285Y-77477952D01*
X148724857Y-78049380D01*
X149343904Y-78049380D01*
X143684714Y-64174666D02*
X144160904Y-64174666D01*
X143589476Y-64460380D02*
X143922809Y-63460380D01*
X144256142Y-64460380D01*
X144541857Y-63555619D02*
X144589476Y-63508000D01*
X144684714Y-63460380D01*
X144922809Y-63460380D01*
X145018047Y-63508000D01*
X145065666Y-63555619D01*
X145113285Y-63650857D01*
X145113285Y-63746095D01*
X145065666Y-63888952D01*
X144494238Y-64460380D01*
X145113285Y-64460380D01*
X140636714Y-64174666D02*
X141112904Y-64174666D01*
X140541476Y-64460380D02*
X140874809Y-63460380D01*
X141208142Y-64460380D01*
X142065285Y-64460380D02*
X141493857Y-64460380D01*
X141779571Y-64460380D02*
X141779571Y-63460380D01*
X141684333Y-63603238D01*
X141589095Y-63698476D01*
X141493857Y-63746095D01*
X137588714Y-64174666D02*
X138064904Y-64174666D01*
X137493476Y-64460380D02*
X137826809Y-63460380D01*
X138160142Y-64460380D01*
X138683952Y-63460380D02*
X138779190Y-63460380D01*
X138874428Y-63508000D01*
X138922047Y-63555619D01*
X138969666Y-63650857D01*
X139017285Y-63841333D01*
X139017285Y-64079428D01*
X138969666Y-64269904D01*
X138922047Y-64365142D01*
X138874428Y-64412761D01*
X138779190Y-64460380D01*
X138683952Y-64460380D01*
X138588714Y-64412761D01*
X138541095Y-64365142D01*
X138493476Y-64269904D01*
X138445857Y-64079428D01*
X138445857Y-63841333D01*
X138493476Y-63650857D01*
X138541095Y-63555619D01*
X138588714Y-63508000D01*
X138683952Y-63460380D01*
X168902142Y-115006380D02*
X168425952Y-115006380D01*
X168425952Y-114006380D01*
X169235476Y-114482571D02*
X169568809Y-114482571D01*
X169711666Y-115006380D02*
X169235476Y-115006380D01*
X169235476Y-114006380D01*
X169711666Y-114006380D01*
X170140238Y-115006380D02*
X170140238Y-114006380D01*
X170378333Y-114006380D01*
X170521190Y-114054000D01*
X170616428Y-114149238D01*
X170664047Y-114244476D01*
X170711666Y-114434952D01*
X170711666Y-114577809D01*
X170664047Y-114768285D01*
X170616428Y-114863523D01*
X170521190Y-114958761D01*
X170378333Y-115006380D01*
X170140238Y-115006380D01*
X147129666Y-115006380D02*
X147129666Y-114006380D01*
X147510619Y-114006380D01*
X147605857Y-114054000D01*
X147653476Y-114101619D01*
X147701095Y-114196857D01*
X147701095Y-114339714D01*
X147653476Y-114434952D01*
X147605857Y-114482571D01*
X147510619Y-114530190D01*
X147129666Y-114530190D01*
X148034428Y-114006380D02*
X148272523Y-115006380D01*
X148463000Y-114292095D01*
X148653476Y-115006380D01*
X148891571Y-114006380D01*
X149843952Y-115006380D02*
X149510619Y-114530190D01*
X149272523Y-115006380D02*
X149272523Y-114006380D01*
X149653476Y-114006380D01*
X149748714Y-114054000D01*
X149796333Y-114101619D01*
X149843952Y-114196857D01*
X149843952Y-114339714D01*
X149796333Y-114434952D01*
X149748714Y-114482571D01*
X149653476Y-114530190D01*
X149272523Y-114530190D01*
X138755380Y-127928666D02*
X138279190Y-128262000D01*
X138755380Y-128500095D02*
X137755380Y-128500095D01*
X137755380Y-128119142D01*
X137803000Y-128023904D01*
X137850619Y-127976285D01*
X137945857Y-127928666D01*
X138088714Y-127928666D01*
X138183952Y-127976285D01*
X138231571Y-128023904D01*
X138279190Y-128119142D01*
X138279190Y-128500095D01*
X137850619Y-127547714D02*
X137803000Y-127500095D01*
X137755380Y-127404857D01*
X137755380Y-127166761D01*
X137803000Y-127071523D01*
X137850619Y-127023904D01*
X137945857Y-126976285D01*
X138041095Y-126976285D01*
X138183952Y-127023904D01*
X138755380Y-127595333D01*
X138755380Y-126976285D01*
X145867380Y-127928666D02*
X145391190Y-128262000D01*
X145867380Y-128500095D02*
X144867380Y-128500095D01*
X144867380Y-128119142D01*
X144915000Y-128023904D01*
X144962619Y-127976285D01*
X145057857Y-127928666D01*
X145200714Y-127928666D01*
X145295952Y-127976285D01*
X145343571Y-128023904D01*
X145391190Y-128119142D01*
X145391190Y-128500095D01*
X144867380Y-127023904D02*
X144867380Y-127500095D01*
X145343571Y-127547714D01*
X145295952Y-127500095D01*
X145248333Y-127404857D01*
X145248333Y-127166761D01*
X145295952Y-127071523D01*
X145343571Y-127023904D01*
X145438809Y-126976285D01*
X145676904Y-126976285D01*
X145772142Y-127023904D01*
X145819761Y-127071523D01*
X145867380Y-127166761D01*
X145867380Y-127404857D01*
X145819761Y-127500095D01*
X145772142Y-127547714D01*
X161615380Y-127928666D02*
X161139190Y-128262000D01*
X161615380Y-128500095D02*
X160615380Y-128500095D01*
X160615380Y-128119142D01*
X160663000Y-128023904D01*
X160710619Y-127976285D01*
X160805857Y-127928666D01*
X160948714Y-127928666D01*
X161043952Y-127976285D01*
X161091571Y-128023904D01*
X161139190Y-128119142D01*
X161139190Y-128500095D01*
X160615380Y-127071523D02*
X160615380Y-127262000D01*
X160663000Y-127357238D01*
X160710619Y-127404857D01*
X160853476Y-127500095D01*
X161043952Y-127547714D01*
X161424904Y-127547714D01*
X161520142Y-127500095D01*
X161567761Y-127452476D01*
X161615380Y-127357238D01*
X161615380Y-127166761D01*
X161567761Y-127071523D01*
X161520142Y-127023904D01*
X161424904Y-126976285D01*
X161186809Y-126976285D01*
X161091571Y-127023904D01*
X161043952Y-127071523D01*
X160996333Y-127166761D01*
X160996333Y-127357238D01*
X161043952Y-127452476D01*
X161091571Y-127500095D01*
X161186809Y-127547714D01*
X168727380Y-127928666D02*
X168251190Y-128262000D01*
X168727380Y-128500095D02*
X167727380Y-128500095D01*
X167727380Y-128119142D01*
X167775000Y-128023904D01*
X167822619Y-127976285D01*
X167917857Y-127928666D01*
X168060714Y-127928666D01*
X168155952Y-127976285D01*
X168203571Y-128023904D01*
X168251190Y-128119142D01*
X168251190Y-128500095D01*
X167727380Y-127595333D02*
X167727380Y-126928666D01*
X168727380Y-127357238D01*
X172283380Y-127928666D02*
X171807190Y-128262000D01*
X172283380Y-128500095D02*
X171283380Y-128500095D01*
X171283380Y-128119142D01*
X171331000Y-128023904D01*
X171378619Y-127976285D01*
X171473857Y-127928666D01*
X171616714Y-127928666D01*
X171711952Y-127976285D01*
X171759571Y-128023904D01*
X171807190Y-128119142D01*
X171807190Y-128500095D01*
X171711952Y-127357238D02*
X171664333Y-127452476D01*
X171616714Y-127500095D01*
X171521476Y-127547714D01*
X171473857Y-127547714D01*
X171378619Y-127500095D01*
X171331000Y-127452476D01*
X171283380Y-127357238D01*
X171283380Y-127166761D01*
X171331000Y-127071523D01*
X171378619Y-127023904D01*
X171473857Y-126976285D01*
X171521476Y-126976285D01*
X171616714Y-127023904D01*
X171664333Y-127071523D01*
X171711952Y-127166761D01*
X171711952Y-127357238D01*
X171759571Y-127452476D01*
X171807190Y-127500095D01*
X171902428Y-127547714D01*
X172092904Y-127547714D01*
X172188142Y-127500095D01*
X172235761Y-127452476D01*
X172283380Y-127357238D01*
X172283380Y-127166761D01*
X172235761Y-127071523D01*
X172188142Y-127023904D01*
X172092904Y-126976285D01*
X171902428Y-126976285D01*
X171807190Y-127023904D01*
X171759571Y-127071523D01*
X171711952Y-127166761D01*
X142311380Y-127928666D02*
X141835190Y-128262000D01*
X142311380Y-128500095D02*
X141311380Y-128500095D01*
X141311380Y-128119142D01*
X141359000Y-128023904D01*
X141406619Y-127976285D01*
X141501857Y-127928666D01*
X141644714Y-127928666D01*
X141739952Y-127976285D01*
X141787571Y-128023904D01*
X141835190Y-128119142D01*
X141835190Y-128500095D01*
X142311380Y-127452476D02*
X142311380Y-127262000D01*
X142263761Y-127166761D01*
X142216142Y-127119142D01*
X142073285Y-127023904D01*
X141882809Y-126976285D01*
X141501857Y-126976285D01*
X141406619Y-127023904D01*
X141359000Y-127071523D01*
X141311380Y-127166761D01*
X141311380Y-127357238D01*
X141359000Y-127452476D01*
X141406619Y-127500095D01*
X141501857Y-127547714D01*
X141739952Y-127547714D01*
X141835190Y-127500095D01*
X141882809Y-127452476D01*
X141930428Y-127357238D01*
X141930428Y-127166761D01*
X141882809Y-127071523D01*
X141835190Y-127023904D01*
X141739952Y-126976285D01*
X165171380Y-128404857D02*
X164695190Y-128738190D01*
X165171380Y-128976285D02*
X164171380Y-128976285D01*
X164171380Y-128595333D01*
X164219000Y-128500095D01*
X164266619Y-128452476D01*
X164361857Y-128404857D01*
X164504714Y-128404857D01*
X164599952Y-128452476D01*
X164647571Y-128500095D01*
X164695190Y-128595333D01*
X164695190Y-128976285D01*
X165171380Y-127452476D02*
X165171380Y-128023904D01*
X165171380Y-127738190D02*
X164171380Y-127738190D01*
X164314238Y-127833428D01*
X164409476Y-127928666D01*
X164457095Y-128023904D01*
X164171380Y-126833428D02*
X164171380Y-126738190D01*
X164219000Y-126642952D01*
X164266619Y-126595333D01*
X164361857Y-126547714D01*
X164552333Y-126500095D01*
X164790428Y-126500095D01*
X164980904Y-126547714D01*
X165076142Y-126595333D01*
X165123761Y-126642952D01*
X165171380Y-126738190D01*
X165171380Y-126833428D01*
X165123761Y-126928666D01*
X165076142Y-126976285D01*
X164980904Y-127023904D01*
X164790428Y-127071523D01*
X164552333Y-127071523D01*
X164361857Y-127023904D01*
X164266619Y-126976285D01*
X164219000Y-126928666D01*
X164171380Y-126833428D01*
X141343142Y-87320380D02*
X141009809Y-86844190D01*
X140771714Y-87320380D02*
X140771714Y-86320380D01*
X141152666Y-86320380D01*
X141247904Y-86368000D01*
X141295523Y-86415619D01*
X141343142Y-86510857D01*
X141343142Y-86653714D01*
X141295523Y-86748952D01*
X141247904Y-86796571D01*
X141152666Y-86844190D01*
X140771714Y-86844190D01*
X142295523Y-87320380D02*
X141724095Y-87320380D01*
X142009809Y-87320380D02*
X142009809Y-86320380D01*
X141914571Y-86463238D01*
X141819333Y-86558476D01*
X141724095Y-86606095D01*
X143247904Y-87320380D02*
X142676476Y-87320380D01*
X142962190Y-87320380D02*
X142962190Y-86320380D01*
X142866952Y-86463238D01*
X142771714Y-86558476D01*
X142676476Y-86606095D01*
X141343142Y-83764380D02*
X141009809Y-83288190D01*
X140771714Y-83764380D02*
X140771714Y-82764380D01*
X141152666Y-82764380D01*
X141247904Y-82812000D01*
X141295523Y-82859619D01*
X141343142Y-82954857D01*
X141343142Y-83097714D01*
X141295523Y-83192952D01*
X141247904Y-83240571D01*
X141152666Y-83288190D01*
X140771714Y-83288190D01*
X142295523Y-83764380D02*
X141724095Y-83764380D01*
X142009809Y-83764380D02*
X142009809Y-82764380D01*
X141914571Y-82907238D01*
X141819333Y-83002476D01*
X141724095Y-83050095D01*
X142628857Y-82764380D02*
X143247904Y-82764380D01*
X142914571Y-83145333D01*
X143057428Y-83145333D01*
X143152666Y-83192952D01*
X143200285Y-83240571D01*
X143247904Y-83335809D01*
X143247904Y-83573904D01*
X143200285Y-83669142D01*
X143152666Y-83716761D01*
X143057428Y-83764380D01*
X142771714Y-83764380D01*
X142676476Y-83716761D01*
X142628857Y-83669142D01*
X157011761Y-144978380D02*
X156678428Y-144502190D01*
X156440333Y-144978380D02*
X156440333Y-143978380D01*
X156821285Y-143978380D01*
X156916523Y-144026000D01*
X156964142Y-144073619D01*
X157011761Y-144168857D01*
X157011761Y-144311714D01*
X156964142Y-144406952D01*
X156916523Y-144454571D01*
X156821285Y-144502190D01*
X156440333Y-144502190D01*
X157297476Y-143978380D02*
X157630809Y-144978380D01*
X157964142Y-143978380D01*
X158821285Y-144978380D02*
X158249857Y-144978380D01*
X158535571Y-144978380D02*
X158535571Y-143978380D01*
X158440333Y-144121238D01*
X158345095Y-144216476D01*
X158249857Y-144264095D01*
X161671095Y-114006380D02*
X162242523Y-114006380D01*
X161956809Y-115006380D02*
X161956809Y-114006380D01*
X162480619Y-114006380D02*
X163147285Y-115006380D01*
X163147285Y-114006380D02*
X162480619Y-115006380D01*
D11*
X148062904Y-130308285D02*
X148024809Y-130384476D01*
X147986714Y-130422571D01*
X147910523Y-130460666D01*
X147681952Y-130460666D01*
X147605761Y-130422571D01*
X147567666Y-130384476D01*
X147529571Y-130308285D01*
X147529571Y-130194000D01*
X147567666Y-130117809D01*
X147605761Y-130079714D01*
X147681952Y-130041619D01*
X147910523Y-130041619D01*
X147986714Y-130079714D01*
X148024809Y-130117809D01*
X148062904Y-130194000D01*
X148062904Y-130308285D01*
X147529571Y-129813047D02*
X147529571Y-129508285D01*
X148062904Y-129698761D02*
X147377190Y-129698761D01*
X147301000Y-129660666D01*
X147262904Y-129584476D01*
X147262904Y-129508285D01*
X147529571Y-129355904D02*
X147529571Y-129051142D01*
X148062904Y-129241619D02*
X147377190Y-129241619D01*
X147301000Y-129203523D01*
X147262904Y-129127333D01*
X147262904Y-129051142D01*
D10*
X155154333Y-115006380D02*
X154821000Y-114530190D01*
X154582904Y-115006380D02*
X154582904Y-114006380D01*
X154963857Y-114006380D01*
X155059095Y-114054000D01*
X155106714Y-114101619D01*
X155154333Y-114196857D01*
X155154333Y-114339714D01*
X155106714Y-114434952D01*
X155059095Y-114482571D01*
X154963857Y-114530190D01*
X154582904Y-114530190D01*
X155487666Y-114006380D02*
X156154333Y-115006380D01*
X156154333Y-114006380D02*
X155487666Y-115006380D01*
X159489809Y-108815190D02*
X159489809Y-109291380D01*
X159156476Y-108291380D02*
X159489809Y-108815190D01*
X159823142Y-108291380D01*
X160680285Y-109291380D02*
X160108857Y-109291380D01*
X160394571Y-109291380D02*
X160394571Y-108291380D01*
X160299333Y-108434238D01*
X160204095Y-108529476D01*
X160108857Y-108577095D01*
X138755380Y-139676095D02*
X137755380Y-139676095D01*
X137755380Y-139438000D01*
X137803000Y-139295142D01*
X137898238Y-139199904D01*
X137993476Y-139152285D01*
X138183952Y-139104666D01*
X138326809Y-139104666D01*
X138517285Y-139152285D01*
X138612523Y-139199904D01*
X138707761Y-139295142D01*
X138755380Y-139438000D01*
X138755380Y-139676095D01*
X138755380Y-138152285D02*
X138755380Y-138723714D01*
X138755380Y-138438000D02*
X137755380Y-138438000D01*
X137898238Y-138533238D01*
X137993476Y-138628476D01*
X138041095Y-138723714D01*
X160853380Y-139676095D02*
X159853380Y-139676095D01*
X159853380Y-139438000D01*
X159901000Y-139295142D01*
X159996238Y-139199904D01*
X160091476Y-139152285D01*
X160281952Y-139104666D01*
X160424809Y-139104666D01*
X160615285Y-139152285D01*
X160710523Y-139199904D01*
X160805761Y-139295142D01*
X160853380Y-139438000D01*
X160853380Y-139676095D01*
X159948619Y-138723714D02*
X159901000Y-138676095D01*
X159853380Y-138580857D01*
X159853380Y-138342761D01*
X159901000Y-138247523D01*
X159948619Y-138199904D01*
X160043857Y-138152285D01*
X160139095Y-138152285D01*
X160281952Y-138199904D01*
X160853380Y-138771333D01*
X160853380Y-138152285D01*
X139951095Y-77811380D02*
X139951095Y-78620904D01*
X139998714Y-78716142D01*
X140046333Y-78763761D01*
X140141571Y-78811380D01*
X140332047Y-78811380D01*
X140427285Y-78763761D01*
X140474904Y-78716142D01*
X140522523Y-78620904D01*
X140522523Y-77811380D01*
X140903476Y-77811380D02*
X141522523Y-77811380D01*
X141189190Y-78192333D01*
X141332047Y-78192333D01*
X141427285Y-78239952D01*
X141474904Y-78287571D01*
X141522523Y-78382809D01*
X141522523Y-78620904D01*
X141474904Y-78716142D01*
X141427285Y-78763761D01*
X141332047Y-78811380D01*
X141046333Y-78811380D01*
X140951095Y-78763761D01*
X140903476Y-78716142D01*
X142264380Y-101004666D02*
X142740571Y-101004666D01*
X142169142Y-101290380D02*
X142502476Y-100290380D01*
X142835809Y-101290380D01*
X143026285Y-100290380D02*
X143597714Y-100290380D01*
X143312000Y-101290380D02*
X143312000Y-100290380D01*
X143931047Y-101290380D02*
X143931047Y-100623714D01*
X143931047Y-100718952D02*
X143978666Y-100671333D01*
X144073904Y-100623714D01*
X144216761Y-100623714D01*
X144312000Y-100671333D01*
X144359619Y-100766571D01*
X144359619Y-101290380D01*
X144359619Y-100766571D02*
X144407238Y-100671333D01*
X144502476Y-100623714D01*
X144645333Y-100623714D01*
X144740571Y-100671333D01*
X144788190Y-100766571D01*
X144788190Y-101290380D01*
X145645333Y-101242761D02*
X145550095Y-101290380D01*
X145359619Y-101290380D01*
X145264380Y-101242761D01*
X145216761Y-101147523D01*
X145216761Y-100766571D01*
X145264380Y-100671333D01*
X145359619Y-100623714D01*
X145550095Y-100623714D01*
X145645333Y-100671333D01*
X145692952Y-100766571D01*
X145692952Y-100861809D01*
X145216761Y-100957047D01*
X146550095Y-100623714D02*
X146550095Y-101433238D01*
X146502476Y-101528476D01*
X146454857Y-101576095D01*
X146359619Y-101623714D01*
X146216761Y-101623714D01*
X146121523Y-101576095D01*
X146550095Y-101242761D02*
X146454857Y-101290380D01*
X146264380Y-101290380D01*
X146169142Y-101242761D01*
X146121523Y-101195142D01*
X146073904Y-101099904D01*
X146073904Y-100814190D01*
X146121523Y-100718952D01*
X146169142Y-100671333D01*
X146264380Y-100623714D01*
X146454857Y-100623714D01*
X146550095Y-100671333D01*
X147454857Y-101290380D02*
X147454857Y-100766571D01*
X147407238Y-100671333D01*
X147312000Y-100623714D01*
X147121523Y-100623714D01*
X147026285Y-100671333D01*
X147454857Y-101242761D02*
X147359619Y-101290380D01*
X147121523Y-101290380D01*
X147026285Y-101242761D01*
X146978666Y-101147523D01*
X146978666Y-101052285D01*
X147026285Y-100957047D01*
X147121523Y-100909428D01*
X147359619Y-100909428D01*
X147454857Y-100861809D01*
X147835809Y-100290380D02*
X148454857Y-100290380D01*
X148121523Y-100671333D01*
X148264380Y-100671333D01*
X148359619Y-100718952D01*
X148407238Y-100766571D01*
X148454857Y-100861809D01*
X148454857Y-101099904D01*
X148407238Y-101195142D01*
X148359619Y-101242761D01*
X148264380Y-101290380D01*
X147978666Y-101290380D01*
X147883428Y-101242761D01*
X147835809Y-101195142D01*
X148835809Y-100385619D02*
X148883428Y-100338000D01*
X148978666Y-100290380D01*
X149216761Y-100290380D01*
X149312000Y-100338000D01*
X149359619Y-100385619D01*
X149407238Y-100480857D01*
X149407238Y-100576095D01*
X149359619Y-100718952D01*
X148788190Y-101290380D01*
X149407238Y-101290380D01*
X149978666Y-100718952D02*
X149883428Y-100671333D01*
X149835809Y-100623714D01*
X149788190Y-100528476D01*
X149788190Y-100480857D01*
X149835809Y-100385619D01*
X149883428Y-100338000D01*
X149978666Y-100290380D01*
X150169142Y-100290380D01*
X150264380Y-100338000D01*
X150312000Y-100385619D01*
X150359619Y-100480857D01*
X150359619Y-100528476D01*
X150312000Y-100623714D01*
X150264380Y-100671333D01*
X150169142Y-100718952D01*
X149978666Y-100718952D01*
X149883428Y-100766571D01*
X149835809Y-100814190D01*
X149788190Y-100909428D01*
X149788190Y-101099904D01*
X149835809Y-101195142D01*
X149883428Y-101242761D01*
X149978666Y-101290380D01*
X150169142Y-101290380D01*
X150264380Y-101242761D01*
X150312000Y-101195142D01*
X150359619Y-101099904D01*
X150359619Y-100909428D01*
X150312000Y-100814190D01*
X150264380Y-100766571D01*
X150169142Y-100718952D01*
X150788190Y-101290380D02*
X150788190Y-100290380D01*
X151169142Y-100290380D01*
X151264380Y-100338000D01*
X151312000Y-100385619D01*
X151359619Y-100480857D01*
X151359619Y-100623714D01*
X151312000Y-100718952D01*
X151264380Y-100766571D01*
X151169142Y-100814190D01*
X150788190Y-100814190D01*
X156170333Y-90781142D02*
X156122714Y-90828761D01*
X155979857Y-90876380D01*
X155884619Y-90876380D01*
X155741761Y-90828761D01*
X155646523Y-90733523D01*
X155598904Y-90638285D01*
X155551285Y-90447809D01*
X155551285Y-90304952D01*
X155598904Y-90114476D01*
X155646523Y-90019238D01*
X155741761Y-89924000D01*
X155884619Y-89876380D01*
X155979857Y-89876380D01*
X156122714Y-89924000D01*
X156170333Y-89971619D01*
X156503666Y-89876380D02*
X157170333Y-89876380D01*
X156741761Y-90876380D01*
X140152380Y-58300857D02*
X139676190Y-58634190D01*
X140152380Y-58872285D02*
X139152380Y-58872285D01*
X139152380Y-58491333D01*
X139200000Y-58396095D01*
X139247619Y-58348476D01*
X139342857Y-58300857D01*
X139485714Y-58300857D01*
X139580952Y-58348476D01*
X139628571Y-58396095D01*
X139676190Y-58491333D01*
X139676190Y-58872285D01*
X140152380Y-57348476D02*
X140152380Y-57919904D01*
X140152380Y-57634190D02*
X139152380Y-57634190D01*
X139295238Y-57729428D01*
X139390476Y-57824666D01*
X139438095Y-57919904D01*
X139152380Y-56443714D02*
X139152380Y-56919904D01*
X139628571Y-56967523D01*
X139580952Y-56919904D01*
X139533333Y-56824666D01*
X139533333Y-56586571D01*
X139580952Y-56491333D01*
X139628571Y-56443714D01*
X139723809Y-56396095D01*
X139961904Y-56396095D01*
X140057142Y-56443714D01*
X140104761Y-56491333D01*
X140152380Y-56586571D01*
X140152380Y-56824666D01*
X140104761Y-56919904D01*
X140057142Y-56967523D01*
X155392380Y-58300857D02*
X154916190Y-58634190D01*
X155392380Y-58872285D02*
X154392380Y-58872285D01*
X154392380Y-58491333D01*
X154440000Y-58396095D01*
X154487619Y-58348476D01*
X154582857Y-58300857D01*
X154725714Y-58300857D01*
X154820952Y-58348476D01*
X154868571Y-58396095D01*
X154916190Y-58491333D01*
X154916190Y-58872285D01*
X155392380Y-57348476D02*
X155392380Y-57919904D01*
X155392380Y-57634190D02*
X154392380Y-57634190D01*
X154535238Y-57729428D01*
X154630476Y-57824666D01*
X154678095Y-57919904D01*
X154392380Y-56491333D02*
X154392380Y-56681809D01*
X154440000Y-56777047D01*
X154487619Y-56824666D01*
X154630476Y-56919904D01*
X154820952Y-56967523D01*
X155201904Y-56967523D01*
X155297142Y-56919904D01*
X155344761Y-56872285D01*
X155392380Y-56777047D01*
X155392380Y-56586571D01*
X155344761Y-56491333D01*
X155297142Y-56443714D01*
X155201904Y-56396095D01*
X154963809Y-56396095D01*
X154868571Y-56443714D01*
X154820952Y-56491333D01*
X154773333Y-56586571D01*
X154773333Y-56777047D01*
X154820952Y-56872285D01*
X154868571Y-56919904D01*
X154963809Y-56967523D01*
X151582380Y-58300857D02*
X151106190Y-58634190D01*
X151582380Y-58872285D02*
X150582380Y-58872285D01*
X150582380Y-58491333D01*
X150630000Y-58396095D01*
X150677619Y-58348476D01*
X150772857Y-58300857D01*
X150915714Y-58300857D01*
X151010952Y-58348476D01*
X151058571Y-58396095D01*
X151106190Y-58491333D01*
X151106190Y-58872285D01*
X151582380Y-57348476D02*
X151582380Y-57919904D01*
X151582380Y-57634190D02*
X150582380Y-57634190D01*
X150725238Y-57729428D01*
X150820476Y-57824666D01*
X150868095Y-57919904D01*
X150582380Y-57015142D02*
X150582380Y-56348476D01*
X151582380Y-56777047D01*
X143962380Y-58300857D02*
X143486190Y-58634190D01*
X143962380Y-58872285D02*
X142962380Y-58872285D01*
X142962380Y-58491333D01*
X143010000Y-58396095D01*
X143057619Y-58348476D01*
X143152857Y-58300857D01*
X143295714Y-58300857D01*
X143390952Y-58348476D01*
X143438571Y-58396095D01*
X143486190Y-58491333D01*
X143486190Y-58872285D01*
X143962380Y-57348476D02*
X143962380Y-57919904D01*
X143962380Y-57634190D02*
X142962380Y-57634190D01*
X143105238Y-57729428D01*
X143200476Y-57824666D01*
X143248095Y-57919904D01*
X143295714Y-56491333D02*
X143962380Y-56491333D01*
X142914761Y-56729428D02*
X143629047Y-56967523D01*
X143629047Y-56348476D01*
X166822380Y-57824666D02*
X166346190Y-58158000D01*
X166822380Y-58396095D02*
X165822380Y-58396095D01*
X165822380Y-58015142D01*
X165870000Y-57919904D01*
X165917619Y-57872285D01*
X166012857Y-57824666D01*
X166155714Y-57824666D01*
X166250952Y-57872285D01*
X166298571Y-57919904D01*
X166346190Y-58015142D01*
X166346190Y-58396095D01*
X165822380Y-57491333D02*
X165822380Y-56872285D01*
X166203333Y-57205619D01*
X166203333Y-57062761D01*
X166250952Y-56967523D01*
X166298571Y-56919904D01*
X166393809Y-56872285D01*
X166631904Y-56872285D01*
X166727142Y-56919904D01*
X166774761Y-56967523D01*
X166822380Y-57062761D01*
X166822380Y-57348476D01*
X166774761Y-57443714D01*
X166727142Y-57491333D01*
X163012380Y-57824666D02*
X162536190Y-58158000D01*
X163012380Y-58396095D02*
X162012380Y-58396095D01*
X162012380Y-58015142D01*
X162060000Y-57919904D01*
X162107619Y-57872285D01*
X162202857Y-57824666D01*
X162345714Y-57824666D01*
X162440952Y-57872285D01*
X162488571Y-57919904D01*
X162536190Y-58015142D01*
X162536190Y-58396095D01*
X162345714Y-56967523D02*
X163012380Y-56967523D01*
X161964761Y-57205619D02*
X162679047Y-57443714D01*
X162679047Y-56824666D01*
X170632380Y-57824666D02*
X170156190Y-58158000D01*
X170632380Y-58396095D02*
X169632380Y-58396095D01*
X169632380Y-58015142D01*
X169680000Y-57919904D01*
X169727619Y-57872285D01*
X169822857Y-57824666D01*
X169965714Y-57824666D01*
X170060952Y-57872285D01*
X170108571Y-57919904D01*
X170156190Y-58015142D01*
X170156190Y-58396095D01*
X170632380Y-56872285D02*
X170632380Y-57443714D01*
X170632380Y-57158000D02*
X169632380Y-57158000D01*
X169775238Y-57253238D01*
X169870476Y-57348476D01*
X169918095Y-57443714D01*
X147772380Y-58300857D02*
X147296190Y-58634190D01*
X147772380Y-58872285D02*
X146772380Y-58872285D01*
X146772380Y-58491333D01*
X146820000Y-58396095D01*
X146867619Y-58348476D01*
X146962857Y-58300857D01*
X147105714Y-58300857D01*
X147200952Y-58348476D01*
X147248571Y-58396095D01*
X147296190Y-58491333D01*
X147296190Y-58872285D01*
X147772380Y-57348476D02*
X147772380Y-57919904D01*
X147772380Y-57634190D02*
X146772380Y-57634190D01*
X146915238Y-57729428D01*
X147010476Y-57824666D01*
X147058095Y-57919904D01*
X146867619Y-56967523D02*
X146820000Y-56919904D01*
X146772380Y-56824666D01*
X146772380Y-56586571D01*
X146820000Y-56491333D01*
X146867619Y-56443714D01*
X146962857Y-56396095D01*
X147058095Y-56396095D01*
X147200952Y-56443714D01*
X147772380Y-57015142D01*
X147772380Y-56396095D01*
X139255666Y-117498761D02*
X139398523Y-117546380D01*
X139636619Y-117546380D01*
X139731857Y-117498761D01*
X139779476Y-117451142D01*
X139827095Y-117355904D01*
X139827095Y-117260666D01*
X139779476Y-117165428D01*
X139731857Y-117117809D01*
X139636619Y-117070190D01*
X139446142Y-117022571D01*
X139350904Y-116974952D01*
X139303285Y-116927333D01*
X139255666Y-116832095D01*
X139255666Y-116736857D01*
X139303285Y-116641619D01*
X139350904Y-116594000D01*
X139446142Y-116546380D01*
X139684238Y-116546380D01*
X139827095Y-116594000D01*
X140160428Y-116546380D02*
X140398523Y-117546380D01*
X140589000Y-116832095D01*
X140779476Y-117546380D01*
X141017571Y-116546380D01*
X141922333Y-117546380D02*
X141350904Y-117546380D01*
X141636619Y-117546380D02*
X141636619Y-116546380D01*
X141541380Y-116689238D01*
X141446142Y-116784476D01*
X141350904Y-116832095D01*
X135691619Y-115895619D02*
X136167809Y-115562285D01*
X135691619Y-115324190D02*
X136691619Y-115324190D01*
X136691619Y-115705142D01*
X136644000Y-115800380D01*
X136596380Y-115848000D01*
X136501142Y-115895619D01*
X136358285Y-115895619D01*
X136263047Y-115848000D01*
X136215428Y-115800380D01*
X136167809Y-115705142D01*
X136167809Y-115324190D01*
X136215428Y-116324190D02*
X136215428Y-116657523D01*
X135691619Y-116800380D02*
X135691619Y-116324190D01*
X136691619Y-116324190D01*
X136691619Y-116800380D01*
X135739238Y-117181333D02*
X135691619Y-117324190D01*
X135691619Y-117562285D01*
X135739238Y-117657523D01*
X135786857Y-117705142D01*
X135882095Y-117752761D01*
X135977333Y-117752761D01*
X136072571Y-117705142D01*
X136120190Y-117657523D01*
X136167809Y-117562285D01*
X136215428Y-117371809D01*
X136263047Y-117276571D01*
X136310666Y-117228952D01*
X136405904Y-117181333D01*
X136501142Y-117181333D01*
X136596380Y-117228952D01*
X136644000Y-117276571D01*
X136691619Y-117371809D01*
X136691619Y-117609904D01*
X136644000Y-117752761D01*
X136215428Y-118181333D02*
X136215428Y-118514666D01*
X135691619Y-118657523D02*
X135691619Y-118181333D01*
X136691619Y-118181333D01*
X136691619Y-118657523D01*
X136691619Y-118943238D02*
X136691619Y-119514666D01*
X135691619Y-119228952D02*
X136691619Y-119228952D01*
X140081095Y-72096380D02*
X140081095Y-72905904D01*
X140128714Y-73001142D01*
X140176333Y-73048761D01*
X140271571Y-73096380D01*
X140462047Y-73096380D01*
X140557285Y-73048761D01*
X140604904Y-73001142D01*
X140652523Y-72905904D01*
X140652523Y-72096380D01*
X141557285Y-72429714D02*
X141557285Y-73096380D01*
X141319190Y-72048761D02*
X141081095Y-72763047D01*
X141700142Y-72763047D01*
X145970809Y-109672380D02*
X145970809Y-108672380D01*
X147018428Y-109577142D02*
X146970809Y-109624761D01*
X146827952Y-109672380D01*
X146732714Y-109672380D01*
X146589857Y-109624761D01*
X146494619Y-109529523D01*
X146447000Y-109434285D01*
X146399380Y-109243809D01*
X146399380Y-109100952D01*
X146447000Y-108910476D01*
X146494619Y-108815238D01*
X146589857Y-108720000D01*
X146732714Y-108672380D01*
X146827952Y-108672380D01*
X146970809Y-108720000D01*
X147018428Y-108767619D01*
X147399380Y-109624761D02*
X147542238Y-109672380D01*
X147780333Y-109672380D01*
X147875571Y-109624761D01*
X147923190Y-109577142D01*
X147970809Y-109481904D01*
X147970809Y-109386666D01*
X147923190Y-109291428D01*
X147875571Y-109243809D01*
X147780333Y-109196190D01*
X147589857Y-109148571D01*
X147494619Y-109100952D01*
X147447000Y-109053333D01*
X147399380Y-108958095D01*
X147399380Y-108862857D01*
X147447000Y-108767619D01*
X147494619Y-108720000D01*
X147589857Y-108672380D01*
X147827952Y-108672380D01*
X147970809Y-108720000D01*
X148399380Y-109672380D02*
X148399380Y-108672380D01*
X148780333Y-108672380D01*
X148875571Y-108720000D01*
X148923190Y-108767619D01*
X148970809Y-108862857D01*
X148970809Y-109005714D01*
X148923190Y-109100952D01*
X148875571Y-109148571D01*
X148780333Y-109196190D01*
X148399380Y-109196190D01*
X156170333Y-94337142D02*
X156122714Y-94384761D01*
X155979857Y-94432380D01*
X155884619Y-94432380D01*
X155741761Y-94384761D01*
X155646523Y-94289523D01*
X155598904Y-94194285D01*
X155551285Y-94003809D01*
X155551285Y-93860952D01*
X155598904Y-93670476D01*
X155646523Y-93575238D01*
X155741761Y-93480000D01*
X155884619Y-93432380D01*
X155979857Y-93432380D01*
X156122714Y-93480000D01*
X156170333Y-93527619D01*
X157027476Y-93765714D02*
X157027476Y-94432380D01*
X156789380Y-93384761D02*
X156551285Y-94099047D01*
X157170333Y-94099047D01*
X149423380Y-94249619D02*
X148423380Y-94249619D01*
X148423380Y-94011523D01*
X148471000Y-93868666D01*
X148566238Y-93773428D01*
X148661476Y-93725809D01*
X148851952Y-93678190D01*
X148994809Y-93678190D01*
X149185285Y-93725809D01*
X149280523Y-93773428D01*
X149375761Y-93868666D01*
X149423380Y-94011523D01*
X149423380Y-94249619D01*
X149375761Y-92868666D02*
X149423380Y-92963904D01*
X149423380Y-93154380D01*
X149375761Y-93249619D01*
X149280523Y-93297238D01*
X148899571Y-93297238D01*
X148804333Y-93249619D01*
X148756714Y-93154380D01*
X148756714Y-92963904D01*
X148804333Y-92868666D01*
X148899571Y-92821047D01*
X148994809Y-92821047D01*
X149090047Y-93297238D01*
X149423380Y-92392476D02*
X148423380Y-92392476D01*
X148804333Y-92392476D02*
X148756714Y-92297238D01*
X148756714Y-92106761D01*
X148804333Y-92011523D01*
X148851952Y-91963904D01*
X148947190Y-91916285D01*
X149232904Y-91916285D01*
X149328142Y-91963904D01*
X149375761Y-92011523D01*
X149423380Y-92106761D01*
X149423380Y-92297238D01*
X149375761Y-92392476D01*
X148756714Y-91059142D02*
X149423380Y-91059142D01*
X148756714Y-91487714D02*
X149280523Y-91487714D01*
X149375761Y-91440095D01*
X149423380Y-91344857D01*
X149423380Y-91202000D01*
X149375761Y-91106761D01*
X149328142Y-91059142D01*
X148756714Y-90154380D02*
X149566238Y-90154380D01*
X149661476Y-90202000D01*
X149709095Y-90249619D01*
X149756714Y-90344857D01*
X149756714Y-90487714D01*
X149709095Y-90582952D01*
X149375761Y-90154380D02*
X149423380Y-90249619D01*
X149423380Y-90440095D01*
X149375761Y-90535333D01*
X149328142Y-90582952D01*
X149232904Y-90630571D01*
X148947190Y-90630571D01*
X148851952Y-90582952D01*
X148804333Y-90535333D01*
X148756714Y-90440095D01*
X148756714Y-90249619D01*
X148804333Y-90154380D01*
X159202380Y-58300857D02*
X158726190Y-58634190D01*
X159202380Y-58872285D02*
X158202380Y-58872285D01*
X158202380Y-58491333D01*
X158250000Y-58396095D01*
X158297619Y-58348476D01*
X158392857Y-58300857D01*
X158535714Y-58300857D01*
X158630952Y-58348476D01*
X158678571Y-58396095D01*
X158726190Y-58491333D01*
X158726190Y-58872285D01*
X159202380Y-57348476D02*
X159202380Y-57919904D01*
X159202380Y-57634190D02*
X158202380Y-57634190D01*
X158345238Y-57729428D01*
X158440476Y-57824666D01*
X158488095Y-57919904D01*
X158630952Y-56777047D02*
X158583333Y-56872285D01*
X158535714Y-56919904D01*
X158440476Y-56967523D01*
X158392857Y-56967523D01*
X158297619Y-56919904D01*
X158250000Y-56872285D01*
X158202380Y-56777047D01*
X158202380Y-56586571D01*
X158250000Y-56491333D01*
X158297619Y-56443714D01*
X158392857Y-56396095D01*
X158440476Y-56396095D01*
X158535714Y-56443714D01*
X158583333Y-56491333D01*
X158630952Y-56586571D01*
X158630952Y-56777047D01*
X158678571Y-56872285D01*
X158726190Y-56919904D01*
X158821428Y-56967523D01*
X159011904Y-56967523D01*
X159107142Y-56919904D01*
X159154761Y-56872285D01*
X159202380Y-56777047D01*
X159202380Y-56586571D01*
X159154761Y-56491333D01*
X159107142Y-56443714D01*
X159011904Y-56396095D01*
X158821428Y-56396095D01*
X158726190Y-56443714D01*
X158678571Y-56491333D01*
X158630952Y-56586571D01*
D12*
X158267400Y-87579200D02*
X161112200Y-87579200D01*
X166090600Y-84836000D02*
X166090600Y-87579200D01*
X166090600Y-87579200D02*
X163245800Y-87579200D01*
X158267400Y-84836000D02*
X158267400Y-87579200D01*
X173405800Y-74269600D02*
G75*
G03*
X173405800Y-74269600I-11226800J0D01*
G01*
D11*
X140997000Y-136120000D02*
X143737000Y-136120000D01*
X140997000Y-143360000D02*
X143737000Y-143360000D01*
X143737000Y-143360000D02*
X143737000Y-136120000D01*
X140997000Y-143360000D02*
X140997000Y-136120000D01*
X153705000Y-136120000D02*
X157445000Y-136120000D01*
X157445000Y-143360000D02*
X157445000Y-136120000D01*
X153705000Y-143360000D02*
X157445000Y-143360000D01*
X153705000Y-143360000D02*
X153705000Y-136120000D01*
X148301000Y-136120000D02*
X144561000Y-136120000D01*
X148301000Y-136120000D02*
X148301000Y-143360000D01*
X144561000Y-136120000D02*
X144561000Y-143360000D01*
X148301000Y-143360000D02*
X144561000Y-143360000D01*
X161007000Y-91377000D02*
X162409000Y-91377000D01*
X161035000Y-91297000D02*
X162409000Y-91297000D01*
X161327000Y-90737000D02*
X162409000Y-90737000D01*
X164489000Y-90537000D02*
X165420000Y-90537000D01*
X164489000Y-91457000D02*
X165917000Y-91457000D01*
X164489000Y-90577000D02*
X165453000Y-90577000D01*
X164489000Y-90657000D02*
X165514000Y-90657000D01*
X160969000Y-91497000D02*
X162409000Y-91497000D01*
X164489000Y-92178000D02*
X166029000Y-92178000D01*
X162772000Y-89697000D02*
X164126000Y-89697000D01*
X161724000Y-94772775D02*
X162224000Y-94772775D01*
X163165000Y-89617000D02*
X163733000Y-89617000D01*
X164489000Y-91497000D02*
X165929000Y-91497000D01*
X161414000Y-90617000D02*
X162409000Y-90617000D01*
X164489000Y-91738000D02*
X165985000Y-91738000D01*
X162438000Y-89817000D02*
X164460000Y-89817000D01*
X161120000Y-91097000D02*
X162409000Y-91097000D01*
X160893000Y-91858000D02*
X162409000Y-91858000D01*
X164489000Y-90617000D02*
X165484000Y-90617000D01*
X164489000Y-91017000D02*
X165739000Y-91017000D01*
X160921000Y-91698000D02*
X162409000Y-91698000D01*
X160958000Y-91538000D02*
X162409000Y-91538000D01*
X164489000Y-91057000D02*
X165759000Y-91057000D01*
X161512000Y-90497000D02*
X162409000Y-90497000D01*
X161895000Y-90137000D02*
X165003000Y-90137000D01*
X160871000Y-92098000D02*
X162409000Y-92098000D01*
X164489000Y-90337000D02*
X165234000Y-90337000D01*
X160876000Y-92018000D02*
X162409000Y-92018000D01*
X164489000Y-91137000D02*
X165797000Y-91137000D01*
X162931000Y-89657000D02*
X163967000Y-89657000D01*
X161300000Y-90777000D02*
X162409000Y-90777000D01*
X160873000Y-92058000D02*
X162409000Y-92058000D01*
X162006000Y-90057000D02*
X164892000Y-90057000D01*
X160880000Y-91978000D02*
X162409000Y-91978000D01*
X164489000Y-91898000D02*
X166010000Y-91898000D01*
X160870000Y-92138000D02*
X162409000Y-92138000D01*
X164489000Y-91858000D02*
X166005000Y-91858000D01*
X164489000Y-92218000D02*
X166029000Y-92218000D01*
X161750000Y-90257000D02*
X162409000Y-90257000D01*
X164489000Y-90697000D02*
X165544000Y-90697000D01*
X161202000Y-90937000D02*
X162409000Y-90937000D01*
X164489000Y-92058000D02*
X166025000Y-92058000D01*
X161274000Y-90817000D02*
X162409000Y-90817000D01*
X161101000Y-91137000D02*
X162409000Y-91137000D01*
X161844000Y-90177000D02*
X165054000Y-90177000D01*
X164489000Y-90417000D02*
X165313000Y-90417000D01*
X164489000Y-90217000D02*
X165102000Y-90217000D01*
X161949000Y-90097000D02*
X164949000Y-90097000D01*
X164489000Y-90497000D02*
X165386000Y-90497000D01*
X164489000Y-91257000D02*
X165847000Y-91257000D01*
X161664000Y-90337000D02*
X162409000Y-90337000D01*
X162644000Y-89737000D02*
X164254000Y-89737000D01*
X164489000Y-90977000D02*
X165717000Y-90977000D01*
X160906000Y-91778000D02*
X162409000Y-91778000D01*
X164489000Y-91698000D02*
X165977000Y-91698000D01*
X164489000Y-91818000D02*
X165999000Y-91818000D01*
X160884000Y-91938000D02*
X162409000Y-91938000D01*
X164489000Y-92138000D02*
X166028000Y-92138000D01*
X161249000Y-90857000D02*
X162409000Y-90857000D01*
X164489000Y-90897000D02*
X165673000Y-90897000D01*
X161354000Y-90697000D02*
X162409000Y-90697000D01*
X160869000Y-92218000D02*
X162409000Y-92218000D01*
X164489000Y-90777000D02*
X165598000Y-90777000D01*
X164489000Y-91177000D02*
X165814000Y-91177000D01*
X160929000Y-91658000D02*
X162409000Y-91658000D01*
X164489000Y-91658000D02*
X165969000Y-91658000D01*
X164489000Y-92018000D02*
X166022000Y-92018000D01*
X161796000Y-90217000D02*
X162409000Y-90217000D01*
X161384000Y-90657000D02*
X162409000Y-90657000D01*
X161478000Y-90537000D02*
X162409000Y-90537000D01*
X161067000Y-91217000D02*
X162409000Y-91217000D01*
X164489000Y-90737000D02*
X165571000Y-90737000D01*
X161159000Y-91017000D02*
X162409000Y-91017000D01*
X162351000Y-89857000D02*
X164547000Y-89857000D01*
X160869000Y-92178000D02*
X162409000Y-92178000D01*
X164489000Y-91578000D02*
X165950000Y-91578000D01*
X161974000Y-95022775D02*
X161974000Y-94522775D01*
X164489000Y-90297000D02*
X165192000Y-90297000D01*
X162534000Y-89777000D02*
X164364000Y-89777000D01*
X161706000Y-90297000D02*
X162409000Y-90297000D01*
X161623000Y-90377000D02*
X162409000Y-90377000D01*
X162130000Y-89977000D02*
X164768000Y-89977000D01*
X164489000Y-92098000D02*
X166027000Y-92098000D01*
X164489000Y-91377000D02*
X165891000Y-91377000D01*
X164489000Y-91618000D02*
X165960000Y-91618000D01*
X164489000Y-91337000D02*
X165877000Y-91337000D01*
X164489000Y-91417000D02*
X165904000Y-91417000D01*
X160899000Y-91818000D02*
X162409000Y-91818000D01*
X164489000Y-91297000D02*
X165863000Y-91297000D01*
X164489000Y-91217000D02*
X165831000Y-91217000D01*
X164489000Y-90457000D02*
X165350000Y-90457000D01*
X160938000Y-91618000D02*
X162409000Y-91618000D01*
X161445000Y-90577000D02*
X162409000Y-90577000D01*
X161181000Y-90977000D02*
X162409000Y-90977000D01*
X161139000Y-91057000D02*
X162409000Y-91057000D01*
X161225000Y-90897000D02*
X162409000Y-90897000D01*
X164489000Y-91097000D02*
X165778000Y-91097000D01*
X160948000Y-91578000D02*
X162409000Y-91578000D01*
X160888000Y-91898000D02*
X162409000Y-91898000D01*
X164489000Y-90377000D02*
X165275000Y-90377000D01*
X164489000Y-90857000D02*
X165649000Y-90857000D01*
X160981000Y-91457000D02*
X162409000Y-91457000D01*
X164489000Y-91938000D02*
X166014000Y-91938000D01*
X160913000Y-91738000D02*
X162409000Y-91738000D01*
X161548000Y-90457000D02*
X162409000Y-90457000D01*
X161051000Y-91257000D02*
X162409000Y-91257000D01*
X164489000Y-91978000D02*
X166018000Y-91978000D01*
X161084000Y-91177000D02*
X162409000Y-91177000D01*
X164489000Y-90257000D02*
X165148000Y-90257000D01*
X161021000Y-91337000D02*
X162409000Y-91337000D01*
X164489000Y-91778000D02*
X165992000Y-91778000D01*
X162271000Y-89897000D02*
X164627000Y-89897000D01*
X162198000Y-89937000D02*
X164700000Y-89937000D01*
X162066000Y-90017000D02*
X164832000Y-90017000D01*
X160994000Y-91417000D02*
X162409000Y-91417000D01*
X164489000Y-90937000D02*
X165696000Y-90937000D01*
X161585000Y-90417000D02*
X162409000Y-90417000D01*
X164489000Y-91538000D02*
X165940000Y-91538000D01*
X164489000Y-90817000D02*
X165624000Y-90817000D01*
X166069000Y-92218000D02*
G75*
G03*
X166069000Y-92218000I-2620000J0D01*
G01*
X153126000Y-149788000D02*
X153126000Y-148360000D01*
X153006000Y-146280000D02*
X153006000Y-144892000D01*
X152646000Y-149588000D02*
X152646000Y-148360000D01*
X152726000Y-149630000D02*
X152726000Y-148360000D01*
X153647000Y-149889000D02*
X153647000Y-148360000D01*
X153006000Y-149748000D02*
X153006000Y-148360000D01*
X152246000Y-146280000D02*
X152246000Y-145316000D01*
X153567000Y-149881000D02*
X153567000Y-148360000D01*
X152286000Y-146280000D02*
X152286000Y-145285000D01*
X153247000Y-149821000D02*
X153247000Y-148360000D01*
X152526000Y-149520000D02*
X152526000Y-148360000D01*
X153367000Y-146280000D02*
X153367000Y-144792000D01*
X153767000Y-146280000D02*
X153767000Y-144742000D01*
X151286000Y-147604000D02*
X151286000Y-147036000D01*
X152846000Y-149685000D02*
X152846000Y-148360000D01*
X152326000Y-149385000D02*
X152326000Y-148360000D01*
X153327000Y-146280000D02*
X153327000Y-144800000D01*
X152166000Y-146280000D02*
X152166000Y-145383000D01*
X151766000Y-148820000D02*
X151766000Y-145820000D01*
X152206000Y-146280000D02*
X152206000Y-145349000D01*
X151526000Y-148418000D02*
X151526000Y-146222000D01*
X152766000Y-149649000D02*
X152766000Y-148360000D01*
X153207000Y-146280000D02*
X153207000Y-144829000D01*
X153887000Y-149900000D02*
X153887000Y-148360000D01*
X151726000Y-148763000D02*
X151726000Y-145877000D01*
X156691775Y-148795000D02*
X156191775Y-148795000D01*
X153727000Y-149896000D02*
X153727000Y-148360000D01*
X151806000Y-148874000D02*
X151806000Y-145766000D01*
X152646000Y-146280000D02*
X152646000Y-145052000D01*
X152526000Y-146280000D02*
X152526000Y-145120000D01*
X152126000Y-146280000D02*
X152126000Y-145419000D01*
X153807000Y-149899000D02*
X153807000Y-148360000D01*
X153687000Y-146280000D02*
X153687000Y-144747000D01*
X153407000Y-146280000D02*
X153407000Y-144784000D01*
X151326000Y-147838000D02*
X151326000Y-146802000D01*
X151686000Y-148703000D02*
X151686000Y-145937000D01*
X153767000Y-149898000D02*
X153767000Y-148360000D01*
X152286000Y-149355000D02*
X152286000Y-148360000D01*
X151446000Y-148235000D02*
X151446000Y-146405000D01*
X152046000Y-149146000D02*
X152046000Y-148360000D01*
X153647000Y-146280000D02*
X153647000Y-144751000D01*
X151606000Y-148571000D02*
X151606000Y-146069000D01*
X153287000Y-149831000D02*
X153287000Y-148360000D01*
X153847000Y-146280000D02*
X153847000Y-144740000D01*
X151846000Y-148925000D02*
X151846000Y-145715000D01*
X153367000Y-149848000D02*
X153367000Y-148360000D01*
X153407000Y-149856000D02*
X153407000Y-148360000D01*
X151886000Y-146280000D02*
X151886000Y-145667000D01*
X152486000Y-149495000D02*
X152486000Y-148360000D01*
X152126000Y-149221000D02*
X152126000Y-148360000D01*
X153567000Y-146280000D02*
X153567000Y-144759000D01*
X153046000Y-149762000D02*
X153046000Y-148360000D01*
X153327000Y-149840000D02*
X153327000Y-148360000D01*
X153086000Y-149775000D02*
X153086000Y-148360000D01*
X152886000Y-149702000D02*
X152886000Y-148360000D01*
X152766000Y-146280000D02*
X152766000Y-144991000D01*
X152926000Y-146280000D02*
X152926000Y-144922000D01*
X152446000Y-149469000D02*
X152446000Y-148360000D01*
X153607000Y-146280000D02*
X153607000Y-144755000D01*
X152686000Y-146280000D02*
X152686000Y-145030000D01*
X156441775Y-149045000D02*
X156441775Y-148545000D01*
X152166000Y-149257000D02*
X152166000Y-148360000D01*
X153487000Y-149870000D02*
X153487000Y-148360000D01*
X153807000Y-146280000D02*
X153807000Y-144741000D01*
X153487000Y-146280000D02*
X153487000Y-144770000D01*
X152846000Y-146280000D02*
X152846000Y-144955000D01*
X153687000Y-149893000D02*
X153687000Y-148360000D01*
X152086000Y-149184000D02*
X152086000Y-148360000D01*
X152446000Y-146280000D02*
X152446000Y-145171000D01*
X152486000Y-146280000D02*
X152486000Y-145145000D01*
X153527000Y-146280000D02*
X153527000Y-144764000D01*
X153607000Y-149885000D02*
X153607000Y-148360000D01*
X151366000Y-147997000D02*
X151366000Y-146643000D01*
X152206000Y-149291000D02*
X152206000Y-148360000D01*
X152926000Y-149718000D02*
X152926000Y-148360000D01*
X152006000Y-149105000D02*
X152006000Y-148360000D01*
X153126000Y-146280000D02*
X153126000Y-144852000D01*
X152366000Y-146280000D02*
X152366000Y-145225000D01*
X152406000Y-149442000D02*
X152406000Y-148360000D01*
X152806000Y-149668000D02*
X152806000Y-148360000D01*
X153166000Y-149800000D02*
X153166000Y-148360000D01*
X153247000Y-146280000D02*
X153247000Y-144819000D01*
X151406000Y-148125000D02*
X151406000Y-146515000D01*
X153727000Y-146280000D02*
X153727000Y-144744000D01*
X152406000Y-146280000D02*
X152406000Y-145198000D01*
X152606000Y-149567000D02*
X152606000Y-148360000D01*
X151646000Y-148639000D02*
X151646000Y-146001000D01*
X153527000Y-149876000D02*
X153527000Y-148360000D01*
X152606000Y-146280000D02*
X152606000Y-145073000D01*
X152246000Y-149324000D02*
X152246000Y-148360000D01*
X151966000Y-149063000D02*
X151966000Y-148360000D01*
X153287000Y-146280000D02*
X153287000Y-144809000D01*
X151926000Y-146280000D02*
X151926000Y-145621000D01*
X153166000Y-146280000D02*
X153166000Y-144840000D01*
X153447000Y-146280000D02*
X153447000Y-144777000D01*
X151486000Y-148331000D02*
X151486000Y-146309000D01*
X153447000Y-149863000D02*
X153447000Y-148360000D01*
X152086000Y-146280000D02*
X152086000Y-145456000D01*
X152966000Y-149734000D02*
X152966000Y-148360000D01*
X152806000Y-146280000D02*
X152806000Y-144972000D01*
X152566000Y-149544000D02*
X152566000Y-148360000D01*
X152686000Y-149610000D02*
X152686000Y-148360000D01*
X152366000Y-149415000D02*
X152366000Y-148360000D01*
X151886000Y-148973000D02*
X151886000Y-148360000D01*
X151566000Y-148498000D02*
X151566000Y-146142000D01*
X153046000Y-146280000D02*
X153046000Y-144878000D01*
X152726000Y-146280000D02*
X152726000Y-145010000D01*
X152886000Y-146280000D02*
X152886000Y-144938000D01*
X152046000Y-146280000D02*
X152046000Y-145494000D01*
X153887000Y-146280000D02*
X153887000Y-144740000D01*
X151926000Y-149019000D02*
X151926000Y-148360000D01*
X153086000Y-146280000D02*
X153086000Y-144865000D01*
X152566000Y-146280000D02*
X152566000Y-145096000D01*
X152966000Y-146280000D02*
X152966000Y-144906000D01*
X153847000Y-149900000D02*
X153847000Y-148360000D01*
X151966000Y-146280000D02*
X151966000Y-145577000D01*
X153207000Y-149811000D02*
X153207000Y-148360000D01*
X152326000Y-146280000D02*
X152326000Y-145255000D01*
X152006000Y-146280000D02*
X152006000Y-145535000D01*
X156507000Y-147320000D02*
G75*
G03*
X156507000Y-147320000I-2620000J0D01*
G01*
X152873000Y-143360000D02*
X149133000Y-143360000D01*
X149133000Y-136120000D02*
X149133000Y-143360000D01*
X152873000Y-136120000D02*
X152873000Y-143360000D01*
X152873000Y-136120000D02*
X149133000Y-136120000D01*
X153770000Y-113435000D02*
X153770000Y-106195000D01*
X151030000Y-113435000D02*
X151030000Y-106195000D01*
X151030000Y-106195000D02*
X153770000Y-106195000D01*
X151030000Y-113435000D02*
X153770000Y-113435000D01*
X169264000Y-113435000D02*
X169264000Y-106195000D01*
X166524000Y-106195000D02*
X169264000Y-106195000D01*
X166524000Y-113435000D02*
X166524000Y-106195000D01*
X166524000Y-113435000D02*
X169264000Y-113435000D01*
X146212000Y-64746000D02*
X149952000Y-64746000D01*
X149952000Y-71986000D02*
X149952000Y-64746000D01*
X146212000Y-71986000D02*
X149952000Y-71986000D01*
X146212000Y-71986000D02*
X146212000Y-64746000D01*
X146212000Y-73937000D02*
X146212000Y-81177000D01*
X149952000Y-73937000D02*
X149952000Y-81177000D01*
X149952000Y-73937000D02*
X146212000Y-73937000D01*
X149952000Y-81177000D02*
X146212000Y-81177000D01*
X147701000Y-48194000D02*
X165541000Y-48194000D01*
X146431000Y-50854000D02*
X145101000Y-50854000D01*
X147701000Y-50854000D02*
X165541000Y-50854000D01*
X147701000Y-50854000D02*
X147701000Y-48194000D01*
X145101000Y-50854000D02*
X145101000Y-49524000D01*
X165541000Y-50854000D02*
X165541000Y-48194000D01*
X144099000Y-65006000D02*
X144699000Y-65006000D01*
X144699000Y-67806000D02*
X144099000Y-67806000D01*
X143399000Y-67106000D02*
X143399000Y-65706000D01*
X145399000Y-65706000D02*
X145399000Y-67106000D01*
X145399000Y-65706000D02*
G75*
G03*
X144699000Y-65006000I-700000J0D01*
G01*
X144699000Y-67806000D02*
G75*
G03*
X145399000Y-67106000I1J699999D01*
G01*
X144099000Y-65006000D02*
G75*
G03*
X143399000Y-65706000I0J-700000D01*
G01*
X143399000Y-67106000D02*
G75*
G03*
X144099000Y-67806000I699999J-1D01*
G01*
X142351000Y-65706000D02*
X142351000Y-67106000D01*
X140351000Y-67106000D02*
X140351000Y-65706000D01*
X141651000Y-67806000D02*
X141051000Y-67806000D01*
X141051000Y-65006000D02*
X141651000Y-65006000D01*
X141051000Y-65006000D02*
G75*
G03*
X140351000Y-65706000I0J-700000D01*
G01*
X141651000Y-67806000D02*
G75*
G03*
X142351000Y-67106000I1J699999D01*
G01*
X142351000Y-65706000D02*
G75*
G03*
X141651000Y-65006000I-700000J0D01*
G01*
X140351000Y-67106000D02*
G75*
G03*
X141051000Y-67806000I699999J-1D01*
G01*
X138603000Y-67806000D02*
X138003000Y-67806000D01*
X138003000Y-65006000D02*
X138603000Y-65006000D01*
X139303000Y-65706000D02*
X139303000Y-67106000D01*
X137303000Y-67106000D02*
X137303000Y-65706000D01*
X138603000Y-67806000D02*
G75*
G03*
X139303000Y-67106000I1J699999D01*
G01*
X137303000Y-67106000D02*
G75*
G03*
X138003000Y-67806000I699999J-1D01*
G01*
X139303000Y-65706000D02*
G75*
G03*
X138603000Y-65006000I-700000J0D01*
G01*
X138003000Y-65006000D02*
G75*
G03*
X137303000Y-65706000I0J-700000D01*
G01*
X166985000Y-117073000D02*
X166985000Y-120163000D01*
X166985000Y-120162830D02*
G75*
G03*
X172535000Y-118617538I2560000J1544830D01*
G01*
X172535000Y-118618462D02*
G75*
G03*
X166985000Y-117073170I-2990000J462D01*
G01*
X172045000Y-118618000D02*
G75*
G03*
X172045000Y-118618000I-2500000J0D01*
G01*
X145649000Y-117073000D02*
X145649000Y-120163000D01*
X145649000Y-120162830D02*
G75*
G03*
X151199000Y-118617538I2560000J1544830D01*
G01*
X151199000Y-118618462D02*
G75*
G03*
X145649000Y-117073170I-2990000J462D01*
G01*
X150709000Y-118618000D02*
G75*
G03*
X150709000Y-118618000I-2500000J0D01*
G01*
X139673000Y-124492000D02*
X139343000Y-124492000D01*
X139673000Y-131032000D02*
X139673000Y-124492000D01*
X136933000Y-124492000D02*
X137263000Y-124492000D01*
X137263000Y-131032000D02*
X136933000Y-131032000D01*
X136933000Y-131032000D02*
X136933000Y-124492000D01*
X139343000Y-131032000D02*
X139673000Y-131032000D01*
X146785000Y-124492000D02*
X146455000Y-124492000D01*
X144045000Y-124492000D02*
X144375000Y-124492000D01*
X146785000Y-131032000D02*
X146785000Y-124492000D01*
X144375000Y-131032000D02*
X144045000Y-131032000D01*
X146455000Y-131032000D02*
X146785000Y-131032000D01*
X144045000Y-131032000D02*
X144045000Y-124492000D01*
X162203000Y-124492000D02*
X162533000Y-124492000D01*
X162533000Y-124492000D02*
X162533000Y-131032000D01*
X162533000Y-131032000D02*
X162203000Y-131032000D01*
X159793000Y-124492000D02*
X159793000Y-131032000D01*
X160123000Y-124492000D02*
X159793000Y-124492000D01*
X159793000Y-131032000D02*
X160123000Y-131032000D01*
X167235000Y-131032000D02*
X166905000Y-131032000D01*
X169645000Y-131032000D02*
X169645000Y-124492000D01*
X166905000Y-124492000D02*
X167235000Y-124492000D01*
X169315000Y-131032000D02*
X169645000Y-131032000D01*
X166905000Y-131032000D02*
X166905000Y-124492000D01*
X169645000Y-124492000D02*
X169315000Y-124492000D01*
X173201000Y-124492000D02*
X172871000Y-124492000D01*
X170461000Y-124492000D02*
X170791000Y-124492000D01*
X172871000Y-131032000D02*
X173201000Y-131032000D01*
X170791000Y-131032000D02*
X170461000Y-131032000D01*
X170461000Y-131032000D02*
X170461000Y-124492000D01*
X173201000Y-131032000D02*
X173201000Y-124492000D01*
X140489000Y-131032000D02*
X140489000Y-124492000D01*
X143229000Y-124492000D02*
X142899000Y-124492000D01*
X142899000Y-131032000D02*
X143229000Y-131032000D01*
X140819000Y-131032000D02*
X140489000Y-131032000D01*
X140489000Y-124492000D02*
X140819000Y-124492000D01*
X143229000Y-131032000D02*
X143229000Y-124492000D01*
X165759000Y-124492000D02*
X166089000Y-124492000D01*
X163349000Y-131032000D02*
X163679000Y-131032000D01*
X166089000Y-131032000D02*
X165759000Y-131032000D01*
X163679000Y-124492000D02*
X163349000Y-124492000D01*
X163349000Y-124492000D02*
X163349000Y-131032000D01*
X166089000Y-124492000D02*
X166089000Y-131032000D01*
X138716000Y-85498000D02*
X145256000Y-85498000D01*
X138716000Y-85828000D02*
X138716000Y-85498000D01*
X145256000Y-85498000D02*
X145256000Y-85828000D01*
X138716000Y-88238000D02*
X145256000Y-88238000D01*
X145256000Y-88238000D02*
X145256000Y-87908000D01*
X138716000Y-87908000D02*
X138716000Y-88238000D01*
X138716000Y-81942000D02*
X145256000Y-81942000D01*
X138716000Y-84682000D02*
X145256000Y-84682000D01*
X145256000Y-84682000D02*
X145256000Y-84352000D01*
X138716000Y-82272000D02*
X138716000Y-81942000D01*
X138716000Y-84352000D02*
X138716000Y-84682000D01*
X145256000Y-81942000D02*
X145256000Y-82272000D01*
X158625000Y-147378267D02*
X158625000Y-147035733D01*
X157605000Y-147378267D02*
X157605000Y-147035733D01*
X159873000Y-117073000D02*
X159873000Y-120163000D01*
X165423000Y-118618462D02*
G75*
G03*
X159873000Y-117073170I-2990000J462D01*
G01*
X159873000Y-120162830D02*
G75*
G03*
X165423000Y-118617538I2560000J1544830D01*
G01*
X164933000Y-118618000D02*
G75*
G03*
X164933000Y-118618000I-2500000J0D01*
G01*
X150834000Y-129538000D02*
X150834000Y-128184667D01*
X152894000Y-129538000D02*
X152894000Y-128184667D01*
X153924000Y-125478000D02*
X152654000Y-125478000D01*
X151194000Y-129538000D02*
X151194000Y-128184667D01*
X155554000Y-129538000D02*
X155554000Y-128184667D01*
X155434000Y-129538000D02*
X155434000Y-128184667D01*
X153494000Y-129538000D02*
X153494000Y-128184667D01*
X150594000Y-129538000D02*
X150594000Y-128184667D01*
X155194000Y-125478000D02*
X155194000Y-129538000D01*
X152654000Y-129538000D02*
X153924000Y-129538000D01*
X155914000Y-129538000D02*
X155914000Y-128184667D01*
X151384000Y-125478000D02*
X150114000Y-125478000D01*
X155194000Y-128184667D02*
X156464000Y-128184667D01*
X153134000Y-129538000D02*
X153134000Y-128184667D01*
X153924000Y-129538000D02*
X153924000Y-125478000D01*
X148089000Y-132698000D02*
X148089000Y-131314000D01*
X152654000Y-128184667D02*
X153924000Y-128184667D01*
X152654000Y-125478000D02*
X152654000Y-129538000D01*
X153014000Y-129538000D02*
X153014000Y-128184667D01*
X153854000Y-129538000D02*
X153854000Y-128184667D01*
X150114000Y-125478000D02*
X150114000Y-129538000D01*
X150714000Y-129538000D02*
X150714000Y-128184667D01*
X151384000Y-129538000D02*
X151384000Y-125478000D01*
X155794000Y-129538000D02*
X155794000Y-128184667D01*
X156154000Y-129538000D02*
X156154000Y-128184667D01*
X153374000Y-129538000D02*
X153374000Y-128184667D01*
X155194000Y-129538000D02*
X156464000Y-129538000D01*
X156034000Y-129538000D02*
X156034000Y-128184667D01*
X150954000Y-129538000D02*
X150954000Y-128184667D01*
X156464000Y-129538000D02*
X156464000Y-125478000D01*
X150114000Y-129538000D02*
X151384000Y-129538000D01*
X158249000Y-132458000D02*
X158249000Y-122558000D01*
X150114000Y-128184667D02*
X151384000Y-128184667D01*
X151314000Y-129538000D02*
X151314000Y-128184667D01*
X148329000Y-122558000D02*
X158249000Y-122558000D01*
X148329000Y-132458000D02*
X148329000Y-122558000D01*
X152774000Y-129538000D02*
X152774000Y-128184667D01*
X150234000Y-129538000D02*
X150234000Y-128184667D01*
X156394000Y-129538000D02*
X156394000Y-128184667D01*
X153734000Y-129538000D02*
X153734000Y-128184667D01*
X148089000Y-132698000D02*
X149472000Y-132698000D01*
X153614000Y-129538000D02*
X153614000Y-128184667D01*
X156464000Y-125478000D02*
X155194000Y-125478000D01*
X151074000Y-129538000D02*
X151074000Y-128184667D01*
X155674000Y-129538000D02*
X155674000Y-128184667D01*
X155314000Y-129538000D02*
X155314000Y-128184667D01*
X153254000Y-129538000D02*
X153254000Y-128184667D01*
X150474000Y-129538000D02*
X150474000Y-128184667D01*
X150354000Y-129538000D02*
X150354000Y-128184667D01*
X148329000Y-132458000D02*
X158249000Y-132458000D01*
X156274000Y-129538000D02*
X156274000Y-128184667D01*
X152761000Y-117073000D02*
X152761000Y-120163000D01*
X152761000Y-120162830D02*
G75*
G03*
X158311000Y-118617538I2560000J1544830D01*
G01*
X158311000Y-118618462D02*
G75*
G03*
X152761000Y-117073170I-2990000J462D01*
G01*
X157821000Y-118618000D02*
G75*
G03*
X157821000Y-118618000I-2500000J0D01*
G01*
X156995000Y-106314000D02*
X163245000Y-106314000D01*
X156995000Y-111364000D02*
X163245000Y-111364000D01*
X163245000Y-111364000D02*
G75*
G03*
X163245000Y-106314000I0J2525000D01*
G01*
X156995000Y-106314000D02*
G75*
G03*
X156995000Y-111364000I0J-2525000D01*
G01*
X136963000Y-135710000D02*
X136833000Y-135710000D01*
X139773000Y-136610000D02*
X136833000Y-136610000D01*
X139643000Y-135710000D02*
X139773000Y-135710000D01*
X136833000Y-141150000D02*
X136963000Y-141150000D01*
X139773000Y-135710000D02*
X139773000Y-141150000D01*
X139773000Y-141150000D02*
X139643000Y-141150000D01*
X136833000Y-135710000D02*
X136833000Y-141150000D01*
X139773000Y-136730000D02*
X136833000Y-136730000D01*
X139773000Y-136490000D02*
X136833000Y-136490000D01*
X158931000Y-135710000D02*
X158931000Y-141150000D01*
X161871000Y-136610000D02*
X158931000Y-136610000D01*
X161871000Y-136490000D02*
X158931000Y-136490000D01*
X161871000Y-135710000D02*
X161871000Y-141150000D01*
X158931000Y-141150000D02*
X159061000Y-141150000D01*
X161741000Y-135710000D02*
X161871000Y-135710000D01*
X161871000Y-136730000D02*
X158931000Y-136730000D01*
X159061000Y-135710000D02*
X158931000Y-135710000D01*
X161871000Y-141150000D02*
X161741000Y-141150000D01*
X141477000Y-149854000D02*
X141477000Y-148524000D01*
X142807000Y-149854000D02*
X141477000Y-149854000D01*
X144077000Y-149854000D02*
X149217000Y-149854000D01*
X144077000Y-147194000D02*
X149217000Y-147194000D01*
X144077000Y-149854000D02*
X144077000Y-147194000D01*
X149217000Y-149854000D02*
X149217000Y-147194000D01*
X140778000Y-76053000D02*
X137328000Y-76053000D01*
X140778000Y-81173000D02*
X138828000Y-81173000D01*
X140778000Y-76053000D02*
X142728000Y-76053000D01*
X140778000Y-81173000D02*
X142728000Y-81173000D01*
D10*
X162442000Y-141769000D02*
X163092000Y-141769000D01*
X173092000Y-136019000D02*
X172517000Y-136019000D01*
X173092000Y-136019000D02*
X173092000Y-141769000D01*
X162442000Y-136019000D02*
X163092000Y-136019000D01*
X162442000Y-136019000D02*
X162442000Y-141769000D01*
X173092000Y-141769000D02*
X172442000Y-141769000D01*
X172517000Y-136019000D02*
X172517000Y-134419000D01*
D11*
X137227000Y-101838000D02*
X137227000Y-103488000D01*
X172907000Y-103488000D02*
X172907000Y-98188000D01*
X137227000Y-98188000D02*
X137227000Y-99838000D01*
X172907000Y-98188000D02*
X137227000Y-98188000D01*
X137227000Y-103488000D02*
X172907000Y-103488000D01*
X137227000Y-101838000D02*
G75*
G03*
X137227000Y-99838000I0J1000000D01*
G01*
X152677000Y-89054000D02*
X159917000Y-89054000D01*
X152677000Y-89054000D02*
X152677000Y-91794000D01*
X159917000Y-89054000D02*
X159917000Y-91794000D01*
X152677000Y-91794000D02*
X159917000Y-91794000D01*
X138330000Y-60928000D02*
X138660000Y-60928000D01*
X140740000Y-54388000D02*
X141070000Y-54388000D01*
X138660000Y-54388000D02*
X138330000Y-54388000D01*
X141070000Y-60928000D02*
X140740000Y-60928000D01*
X138330000Y-54388000D02*
X138330000Y-60928000D01*
X141070000Y-54388000D02*
X141070000Y-60928000D01*
X156310000Y-60928000D02*
X155980000Y-60928000D01*
X153900000Y-54388000D02*
X153570000Y-54388000D01*
X153570000Y-60928000D02*
X153900000Y-60928000D01*
X156310000Y-54388000D02*
X156310000Y-60928000D01*
X155980000Y-54388000D02*
X156310000Y-54388000D01*
X153570000Y-54388000D02*
X153570000Y-60928000D01*
X149760000Y-60928000D02*
X149760000Y-54388000D01*
X152500000Y-60928000D02*
X152500000Y-54388000D01*
X149760000Y-54388000D02*
X150090000Y-54388000D01*
X150090000Y-60928000D02*
X149760000Y-60928000D01*
X152170000Y-60928000D02*
X152500000Y-60928000D01*
X152500000Y-54388000D02*
X152170000Y-54388000D01*
X142470000Y-54388000D02*
X142140000Y-54388000D01*
X144550000Y-54388000D02*
X144880000Y-54388000D01*
X142140000Y-54388000D02*
X142140000Y-60928000D01*
X144880000Y-60928000D02*
X144550000Y-60928000D01*
X144880000Y-54388000D02*
X144880000Y-60928000D01*
X142140000Y-60928000D02*
X142470000Y-60928000D01*
X167740000Y-60928000D02*
X167740000Y-54388000D01*
X165000000Y-54388000D02*
X165330000Y-54388000D01*
X167410000Y-60928000D02*
X167740000Y-60928000D01*
X165330000Y-60928000D02*
X165000000Y-60928000D01*
X165000000Y-60928000D02*
X165000000Y-54388000D01*
X167740000Y-54388000D02*
X167410000Y-54388000D01*
X163600000Y-60928000D02*
X163930000Y-60928000D01*
X163930000Y-54388000D02*
X163600000Y-54388000D01*
X163930000Y-60928000D02*
X163930000Y-54388000D01*
X161190000Y-60928000D02*
X161190000Y-54388000D01*
X161520000Y-60928000D02*
X161190000Y-60928000D01*
X161190000Y-54388000D02*
X161520000Y-54388000D01*
X168810000Y-60928000D02*
X168810000Y-54388000D01*
X171550000Y-54388000D02*
X171220000Y-54388000D01*
X171550000Y-60928000D02*
X171550000Y-54388000D01*
X168810000Y-54388000D02*
X169140000Y-54388000D01*
X171220000Y-60928000D02*
X171550000Y-60928000D01*
X169140000Y-60928000D02*
X168810000Y-60928000D01*
X148360000Y-54388000D02*
X148690000Y-54388000D01*
X146280000Y-54388000D02*
X145950000Y-54388000D01*
X145950000Y-60928000D02*
X146280000Y-60928000D01*
X145950000Y-54388000D02*
X145950000Y-60928000D01*
X148690000Y-60928000D02*
X148360000Y-60928000D01*
X148690000Y-54388000D02*
X148690000Y-60928000D01*
D12*
X160133500Y-150177000D02*
X160633500Y-150177000D01*
X168133500Y-144927000D02*
X167633500Y-144927000D01*
X168133500Y-150177000D02*
X168133500Y-149677000D01*
X168133500Y-144927000D02*
X168133500Y-145427000D01*
X160133500Y-144927000D02*
X160633500Y-144927000D01*
X168133500Y-150177000D02*
X167633500Y-150177000D01*
X160133500Y-144927000D02*
X160133500Y-145427000D01*
X162533500Y-145177000D02*
X162533500Y-146477000D01*
X160133500Y-150177000D02*
X160133500Y-149627000D01*
D11*
X137375000Y-114792000D02*
X137375000Y-119292000D01*
X141375000Y-113542000D02*
X139875000Y-113542000D01*
X139875000Y-120542000D02*
X141375000Y-120542000D01*
X143875000Y-119292000D02*
X143875000Y-114792000D01*
X140778000Y-75331000D02*
X142728000Y-75331000D01*
X140778000Y-75331000D02*
X138828000Y-75331000D01*
X140778000Y-70211000D02*
X137328000Y-70211000D01*
X140778000Y-70211000D02*
X142728000Y-70211000D01*
X142494000Y-106493000D02*
X142494000Y-109093000D01*
X137354000Y-106493000D02*
X137354000Y-111693000D01*
X145094000Y-109093000D02*
X145094000Y-111693000D01*
X143764000Y-106493000D02*
X145094000Y-106493000D01*
X142494000Y-106493000D02*
X137354000Y-106493000D01*
X145094000Y-111693000D02*
X137354000Y-111693000D01*
X142494000Y-109093000D02*
X145094000Y-109093000D01*
X145094000Y-106493000D02*
X145094000Y-107823000D01*
X159917000Y-92610000D02*
X159917000Y-95350000D01*
X152677000Y-95350000D02*
X159917000Y-95350000D01*
X152677000Y-92610000D02*
X152677000Y-95350000D01*
X152677000Y-92610000D02*
X159917000Y-92610000D01*
X144907000Y-89602000D02*
X137227000Y-89602000D01*
X147507000Y-92202000D02*
X147507000Y-94802000D01*
X147507000Y-94802000D02*
X137227000Y-94802000D01*
X144907000Y-92202000D02*
X147507000Y-92202000D01*
X144907000Y-89602000D02*
X144907000Y-92202000D01*
X137227000Y-89602000D02*
X137227000Y-94802000D01*
X147507000Y-89602000D02*
X147507000Y-90932000D01*
X146177000Y-89602000D02*
X147507000Y-89602000D01*
X157380000Y-54388000D02*
X157380000Y-60928000D01*
X160120000Y-54388000D02*
X160120000Y-60928000D01*
X157380000Y-60928000D02*
X157710000Y-60928000D01*
X159790000Y-54388000D02*
X160120000Y-54388000D01*
X157710000Y-54388000D02*
X157380000Y-54388000D01*
X160120000Y-60928000D02*
X159790000Y-60928000D01*
M02*
