G04 #@! TF.GenerationSoftware,KiCad,Pcbnew,6.0.7-f9a2dced07~116~ubuntu20.04.1*
G04 #@! TF.CreationDate,2022-09-25T20:21:23+02:00*
G04 #@! TF.ProjectId,Wordclock,576f7264-636c-46f6-936b-2e6b69636164,v01.3*
G04 #@! TF.SameCoordinates,Original*
G04 #@! TF.FileFunction,Legend,Bot*
G04 #@! TF.FilePolarity,Positive*
%FSLAX46Y46*%
G04 Gerber Fmt 4.6, Leading zero omitted, Abs format (unit mm)*
G04 Created by KiCad (PCBNEW 6.0.7-f9a2dced07~116~ubuntu20.04.1) date 2022-09-25 20:21:23*
%MOMM*%
%LPD*%
G01*
G04 APERTURE LIST*
%ADD10C,0.300000*%
G04 APERTURE END LIST*
D10*
X167607571Y-70818761D02*
X167250428Y-72818761D01*
X166964714Y-71390190D01*
X166679000Y-72818761D01*
X166321857Y-70818761D01*
X165536142Y-72818761D02*
X165679000Y-72723523D01*
X165750428Y-72628285D01*
X165821857Y-72437809D01*
X165821857Y-71866380D01*
X165750428Y-71675904D01*
X165679000Y-71580666D01*
X165536142Y-71485428D01*
X165321857Y-71485428D01*
X165179000Y-71580666D01*
X165107571Y-71675904D01*
X165036142Y-71866380D01*
X165036142Y-72437809D01*
X165107571Y-72628285D01*
X165179000Y-72723523D01*
X165321857Y-72818761D01*
X165536142Y-72818761D01*
X164393285Y-72818761D02*
X164393285Y-71485428D01*
X164393285Y-71866380D02*
X164321857Y-71675904D01*
X164250428Y-71580666D01*
X164107571Y-71485428D01*
X163964714Y-71485428D01*
X162821857Y-72818761D02*
X162821857Y-70818761D01*
X162821857Y-72723523D02*
X162964714Y-72818761D01*
X163250428Y-72818761D01*
X163393285Y-72723523D01*
X163464714Y-72628285D01*
X163536142Y-72437809D01*
X163536142Y-71866380D01*
X163464714Y-71675904D01*
X163393285Y-71580666D01*
X163250428Y-71485428D01*
X162964714Y-71485428D01*
X162821857Y-71580666D01*
X161464714Y-72723523D02*
X161607571Y-72818761D01*
X161893285Y-72818761D01*
X162036142Y-72723523D01*
X162107571Y-72628285D01*
X162179000Y-72437809D01*
X162179000Y-71866380D01*
X162107571Y-71675904D01*
X162036142Y-71580666D01*
X161893285Y-71485428D01*
X161607571Y-71485428D01*
X161464714Y-71580666D01*
X160607571Y-72818761D02*
X160750428Y-72723523D01*
X160821857Y-72533047D01*
X160821857Y-70818761D01*
X159821857Y-72818761D02*
X159964714Y-72723523D01*
X160036142Y-72628285D01*
X160107571Y-72437809D01*
X160107571Y-71866380D01*
X160036142Y-71675904D01*
X159964714Y-71580666D01*
X159821857Y-71485428D01*
X159607571Y-71485428D01*
X159464714Y-71580666D01*
X159393285Y-71675904D01*
X159321857Y-71866380D01*
X159321857Y-72437809D01*
X159393285Y-72628285D01*
X159464714Y-72723523D01*
X159607571Y-72818761D01*
X159821857Y-72818761D01*
X158036142Y-72723523D02*
X158179000Y-72818761D01*
X158464714Y-72818761D01*
X158607571Y-72723523D01*
X158679000Y-72628285D01*
X158750428Y-72437809D01*
X158750428Y-71866380D01*
X158679000Y-71675904D01*
X158607571Y-71580666D01*
X158464714Y-71485428D01*
X158179000Y-71485428D01*
X158036142Y-71580666D01*
X157393285Y-72818761D02*
X157393285Y-70818761D01*
X157250428Y-72056857D02*
X156821857Y-72818761D01*
X156821857Y-71485428D02*
X157393285Y-72247333D01*
X172536142Y-76038761D02*
X172536142Y-74038761D01*
X172536142Y-74800666D02*
X172393285Y-74705428D01*
X172107571Y-74705428D01*
X171964714Y-74800666D01*
X171893285Y-74895904D01*
X171821857Y-75086380D01*
X171821857Y-75657809D01*
X171893285Y-75848285D01*
X171964714Y-75943523D01*
X172107571Y-76038761D01*
X172393285Y-76038761D01*
X172536142Y-75943523D01*
X171321857Y-74705428D02*
X170964714Y-76038761D01*
X170607571Y-74705428D02*
X170964714Y-76038761D01*
X171107571Y-76514952D01*
X171179000Y-76610190D01*
X171321857Y-76705428D01*
X168464714Y-74038761D02*
X168464714Y-75467333D01*
X168536142Y-75753047D01*
X168679000Y-75943523D01*
X168893285Y-76038761D01*
X169036142Y-76038761D01*
X167107571Y-76038761D02*
X167107571Y-74991142D01*
X167179000Y-74800666D01*
X167321857Y-74705428D01*
X167607571Y-74705428D01*
X167750428Y-74800666D01*
X167107571Y-75943523D02*
X167250428Y-76038761D01*
X167607571Y-76038761D01*
X167750428Y-75943523D01*
X167821857Y-75753047D01*
X167821857Y-75562571D01*
X167750428Y-75372095D01*
X167607571Y-75276857D01*
X167250428Y-75276857D01*
X167107571Y-75181619D01*
X165750428Y-75943523D02*
X165893285Y-76038761D01*
X166179000Y-76038761D01*
X166321857Y-75943523D01*
X166393285Y-75848285D01*
X166464714Y-75657809D01*
X166464714Y-75086380D01*
X166393285Y-74895904D01*
X166321857Y-74800666D01*
X166179000Y-74705428D01*
X165893285Y-74705428D01*
X165750428Y-74800666D01*
X164893285Y-76038761D02*
X165036142Y-75943523D01*
X165107571Y-75848285D01*
X165179000Y-75657809D01*
X165179000Y-75086380D01*
X165107571Y-74895904D01*
X165036142Y-74800666D01*
X164893285Y-74705428D01*
X164679000Y-74705428D01*
X164536142Y-74800666D01*
X164464714Y-74895904D01*
X164393285Y-75086380D01*
X164393285Y-75657809D01*
X164464714Y-75848285D01*
X164536142Y-75943523D01*
X164679000Y-76038761D01*
X164893285Y-76038761D01*
X163750428Y-76038761D02*
X163750428Y-74038761D01*
X163750428Y-74800666D02*
X163607571Y-74705428D01*
X163321857Y-74705428D01*
X163179000Y-74800666D01*
X163107571Y-74895904D01*
X163036142Y-75086380D01*
X163036142Y-75657809D01*
X163107571Y-75848285D01*
X163179000Y-75943523D01*
X163321857Y-76038761D01*
X163607571Y-76038761D01*
X163750428Y-75943523D01*
X161250428Y-76038761D02*
X161250428Y-74038761D01*
X160393285Y-76038761D01*
X160393285Y-74038761D01*
X159036142Y-74705428D02*
X159036142Y-76038761D01*
X159679000Y-74705428D02*
X159679000Y-75753047D01*
X159607571Y-75943523D01*
X159464714Y-76038761D01*
X159250428Y-76038761D01*
X159107571Y-75943523D01*
X159036142Y-75848285D01*
X159607571Y-74038761D02*
X159536142Y-74134000D01*
X159607571Y-74229238D01*
X159679000Y-74134000D01*
X159607571Y-74038761D01*
X159607571Y-74229238D01*
X159036142Y-74038761D02*
X158964714Y-74134000D01*
X159036142Y-74229238D01*
X159107571Y-74134000D01*
X159036142Y-74038761D01*
X159036142Y-74229238D01*
X158321857Y-76038761D02*
X158321857Y-74705428D01*
X158321857Y-75086380D02*
X158250428Y-74895904D01*
X158179000Y-74800666D01*
X158036142Y-74705428D01*
X157893285Y-74705428D01*
X157393285Y-74705428D02*
X157393285Y-76038761D01*
X157393285Y-74895904D02*
X157321857Y-74800666D01*
X157179000Y-74705428D01*
X156964714Y-74705428D01*
X156821857Y-74800666D01*
X156750428Y-74991142D01*
X156750428Y-76038761D01*
X156036142Y-76038761D02*
X156036142Y-74038761D01*
X156036142Y-74800666D02*
X155893285Y-74705428D01*
X155607571Y-74705428D01*
X155464714Y-74800666D01*
X155393285Y-74895904D01*
X155321857Y-75086380D01*
X155321857Y-75657809D01*
X155393285Y-75848285D01*
X155464714Y-75943523D01*
X155607571Y-76038761D01*
X155893285Y-76038761D01*
X156036142Y-75943523D01*
X154107571Y-75943523D02*
X154250428Y-76038761D01*
X154536142Y-76038761D01*
X154679000Y-75943523D01*
X154750428Y-75753047D01*
X154750428Y-74991142D01*
X154679000Y-74800666D01*
X154536142Y-74705428D01*
X154250428Y-74705428D01*
X154107571Y-74800666D01*
X154036142Y-74991142D01*
X154036142Y-75181619D01*
X154750428Y-75372095D01*
X153393285Y-76038761D02*
X153393285Y-74705428D01*
X153393285Y-75086380D02*
X153321857Y-74895904D01*
X153250428Y-74800666D01*
X153107571Y-74705428D01*
X152964714Y-74705428D01*
X151821857Y-74705428D02*
X151821857Y-76324476D01*
X151893285Y-76514952D01*
X151964714Y-76610190D01*
X152107571Y-76705428D01*
X152321857Y-76705428D01*
X152464714Y-76610190D01*
X151821857Y-75943523D02*
X151964714Y-76038761D01*
X152250428Y-76038761D01*
X152393285Y-75943523D01*
X152464714Y-75848285D01*
X152536142Y-75657809D01*
X152536142Y-75086380D01*
X152464714Y-74895904D01*
X152393285Y-74800666D01*
X152250428Y-74705428D01*
X151964714Y-74705428D01*
X151821857Y-74800666D01*
X172458428Y-80833523D02*
X172244142Y-80928761D01*
X171887000Y-80928761D01*
X171744142Y-80833523D01*
X171672714Y-80738285D01*
X171601285Y-80547809D01*
X171601285Y-80357333D01*
X171672714Y-80166857D01*
X171744142Y-80071619D01*
X171887000Y-79976380D01*
X172172714Y-79881142D01*
X172315571Y-79785904D01*
X172387000Y-79690666D01*
X172458428Y-79500190D01*
X172458428Y-79309714D01*
X172387000Y-79119238D01*
X172315571Y-79024000D01*
X172172714Y-78928761D01*
X171815571Y-78928761D01*
X171601285Y-79024000D01*
X170958428Y-80928761D02*
X170958428Y-78928761D01*
X170101285Y-80928761D01*
X170101285Y-78928761D01*
X169387000Y-80738285D02*
X169315571Y-80833523D01*
X169387000Y-80928761D01*
X169458428Y-80833523D01*
X169387000Y-80738285D01*
X169387000Y-80928761D01*
X169387000Y-79690666D02*
X169315571Y-79785904D01*
X169387000Y-79881142D01*
X169458428Y-79785904D01*
X169387000Y-79690666D01*
X169387000Y-79881142D01*
M02*
